<svg width="450" height="450" viewBox="0 0 450 450" fill="none" xmlns="http://www.w3.org/2000/svg">
<path d="M352.863 348.813H384.507V338.742H352.863V348.813Z" fill="#EBEBEB"/>
<path d="M112.509 218.124H144.153V208.053H112.509V218.124Z" fill="#EBEBEB"/>
<path d="M370.512 361.503C375.768 361.422 389.241 361.197 394.317 361.134H402.156L401.742 361.539V351.468L402.192 351.918C396.936 351.918 383.535 351.855 378.459 351.783L370.548 351.684L370.764 351.468L370.548 361.539L370.512 361.503ZM370.512 361.503L370.305 351.432V351.225H370.521C374.472 351.171 382.401 351.081 386.343 351.045L402.165 350.982H402.615V351.432V361.503V361.917H402.21H394.227C389.187 361.863 375.777 361.629 370.566 361.539L370.512 361.503Z" fill="#EBEBEB"/>
<path d="M260.667 135.144C265.923 135.063 279.396 134.838 284.472 134.775H292.311L291.897 135.18V125.109L292.347 125.559C287.091 125.559 273.69 125.496 268.614 125.424L260.703 125.325L260.919 125.109L260.703 135.18L260.667 135.144ZM260.667 135.144L260.451 125.1V124.893H260.667C264.618 124.839 272.547 124.749 276.489 124.713L292.311 124.65H292.761V125.1L292.716 135.171V135.585H292.311H284.328C279.288 135.531 265.878 135.297 260.667 135.207V135.144Z" fill="#EBEBEB"/>
<path d="M278.316 147.843C283.572 147.762 297.045 147.537 302.121 147.474H309.96L309.555 147.879L309.51 137.808L309.96 138.258C304.704 138.258 291.303 138.195 286.227 138.123L278.316 138.024L278.532 137.808L278.316 147.879V147.843ZM278.316 147.843L278.1 137.772V137.565H278.316C282.267 137.511 290.196 137.421 294.138 137.385L309.96 137.322H310.41V137.772V147.843V148.257H310.005H302.022C296.982 148.203 283.572 147.969 278.361 147.879L278.316 147.843Z" fill="#EBEBEB"/>
<path d="M295.893 135.153H327.537V125.082H295.893V135.153Z" fill="#EBEBEB"/>
<path d="M47.844 361.512H79.488V351.441H47.844V361.512Z" fill="#EBEBEB"/>
<path d="M65.493 50.5171L97.137 50.5171V40.4461H65.493V50.5171Z" fill="#EBEBEB"/>
<path d="M47.8439 63.207C53.0999 63.117 66.5729 62.892 71.6489 62.838H79.4879L79.0739 63.243V53.172L79.5239 53.622C74.2679 53.622 60.8669 53.559 55.7909 53.487L47.8799 53.388L48.0599 53.1L47.8439 63.171V63.207ZM47.8439 63.207L47.6279 53.1V52.893H47.8439C51.7949 52.839 59.7149 52.749 63.6659 52.713L79.4879 52.65H79.9379V53.1V63.171V63.585H79.5329H71.5499C66.5099 63.522 53.0909 63.297 47.8889 63.207H47.8439Z" fill="#EBEBEB"/>
<path d="M352.863 50.5081C358.119 50.4181 371.592 50.2021 376.668 50.1391H384.507L384.093 50.5441V40.4731L384.543 40.9231C379.287 40.9231 365.886 40.8601 360.81 40.7881L352.899 40.6891L353.115 40.4731L352.899 50.5441L352.863 50.5081ZM352.863 50.5081L352.647 40.4371V40.2301H352.863C356.814 40.1761 364.743 40.0861 368.685 40.0501L384.507 39.9871H384.957V40.4371L384.912 50.5081V50.9221H384.507H376.524C371.484 50.8591 358.074 50.6341 352.863 50.5441V50.5081Z" fill="#EBEBEB"/>
<path d="M349.056 159.507L346.167 174.465C345.921 175.966 345.372 177.401 344.554 178.683C343.735 179.965 342.664 181.066 341.406 181.921C340.148 182.776 338.73 183.365 337.236 183.654C335.743 183.943 334.207 183.924 332.721 183.6C331.236 183.312 329.823 182.735 328.562 181.9C327.301 181.066 326.217 179.991 325.372 178.737C324.527 177.483 323.937 176.075 323.637 174.593C323.337 173.111 323.332 171.584 323.622 170.1L328.239 146.169C328.284 145.944 328.518 145.989 328.563 145.755C328.374 145.485 328.374 145.485 328.419 145.251C329.074 142.304 330.832 139.719 333.332 138.027C335.832 136.335 338.886 135.664 341.865 136.152C356.355 138.942 370.314 129.708 373.068 115.452C375.858 100.962 366.3 87.4261 351.801 84.6271C347.336 83.7508 342.718 84.0655 338.413 85.5395C334.108 87.0135 330.267 89.5949 327.276 93.0241C326.278 94.189 325.057 95.1434 323.686 95.8317C322.315 96.5201 320.821 96.9285 319.29 97.0332C317.76 97.1379 316.224 96.9368 314.772 96.4417C313.32 95.9465 311.981 95.1672 310.833 94.1491C309.703 93.149 308.783 91.9347 308.125 90.5766C307.468 89.2185 307.086 87.7435 307.002 86.2369C306.919 84.7303 307.135 83.2221 307.638 81.7995C308.141 80.3769 308.921 79.0682 309.933 77.9491C315.287 71.794 322.086 67.0655 329.719 64.1885C337.353 61.3115 345.581 60.3761 353.666 61.4665C361.75 62.5568 369.437 65.6387 376.036 70.4352C382.634 75.2317 387.938 81.5924 391.47 88.9459C395.001 96.2994 396.651 104.415 396.27 112.564C395.889 120.713 393.489 128.639 389.286 135.631C385.084 142.623 379.21 148.461 372.192 152.62C365.175 156.78 357.234 159.131 349.083 159.462L349.056 159.507ZM339.336 209.907L338.535 214.047C338.285 215.545 337.733 216.976 336.912 218.253C336.092 219.531 335.021 220.629 333.763 221.48C332.506 222.331 331.088 222.917 329.597 223.204C328.106 223.49 326.572 223.471 325.089 223.146C322.103 222.564 319.469 220.822 317.765 218.302C316.061 215.781 315.426 212.688 315.999 209.7L316.791 205.56C317.419 202.598 319.171 199.996 321.679 198.299C324.186 196.602 327.254 195.943 330.237 196.461C331.72 196.735 333.134 197.301 334.396 198.127C335.658 198.953 336.743 200.023 337.587 201.273C338.43 202.523 339.017 203.929 339.311 205.409C339.605 206.888 339.601 208.411 339.3 209.889L339.336 209.907Z" fill="#EBEBEB"/>
<path d="M80.7208 211.716L77.1209 196.911C76.7281 195.445 76.6371 193.914 76.8532 192.412C77.0694 190.91 77.5883 189.467 78.3784 188.171C79.1685 186.875 80.2135 185.754 81.45 184.873C82.6864 183.993 84.0887 183.373 85.5719 183.051C88.529 182.337 91.6484 182.825 94.2464 184.408C96.8445 185.99 98.7092 188.538 99.4319 191.493L105.192 215.172C105.246 215.397 105.012 215.451 105.066 215.685C105.354 215.847 105.354 215.847 105.408 216.081C106.039 219.032 105.517 222.114 103.949 224.692C102.381 227.271 99.8858 229.152 96.9748 229.95C93.5836 230.733 90.3804 232.178 87.5487 234.202C84.717 236.226 82.3125 238.789 80.4731 241.743C78.6337 244.698 77.3955 247.987 76.8296 251.421C76.2636 254.855 76.3809 258.367 77.1748 261.756C80.6668 276.093 94.9858 284.427 109.341 280.944C113.767 279.886 117.837 277.68 121.139 274.548C124.441 271.417 126.86 267.47 128.151 263.106C128.574 261.632 129.286 260.256 130.246 259.06C131.207 257.865 132.395 256.872 133.744 256.14C135.092 255.409 136.572 254.953 138.098 254.8C139.624 254.647 141.165 254.8 142.632 255.249C144.072 255.687 145.411 256.405 146.572 257.362C147.733 258.32 148.693 259.498 149.396 260.828C150.1 262.158 150.533 263.614 150.671 265.113C150.809 266.612 150.649 268.123 150.201 269.559C147.892 277.383 143.676 284.511 137.931 290.303C132.186 296.094 125.092 300.368 117.286 302.739C109.481 305.11 101.209 305.505 93.2128 303.887C85.217 302.27 77.7483 298.692 71.4779 293.473C65.2074 288.255 60.3317 281.561 57.2889 273.992C54.2461 266.423 53.1315 258.217 54.0452 250.11C54.959 242.004 57.8725 234.252 62.524 227.55C67.1755 220.848 73.4191 215.407 80.6939 211.716H80.7208ZM68.6069 161.856L67.6079 157.761C67.2137 156.294 67.1216 154.763 67.3371 153.26C67.5526 151.756 68.0712 150.312 68.8614 149.016C69.6517 147.719 70.6971 146.596 71.9343 145.715C73.1715 144.834 74.5747 144.214 76.0589 143.892C79.0172 143.179 82.1378 143.668 84.736 145.252C87.3343 146.836 89.1982 149.386 89.9189 152.343L90.9178 156.438C91.5761 159.392 91.0645 162.485 89.4904 165.07C87.9163 167.654 85.4022 169.528 82.4758 170.298C81.0103 170.673 79.4846 170.751 77.9886 170.527C76.4925 170.304 75.0561 169.783 73.764 168.997C72.4719 168.21 71.35 167.174 70.4644 165.947C69.5787 164.721 68.9472 163.33 68.6069 161.856Z" fill="#EBEBEB"/>
<path d="M292.869 415.467H194.832C194.022 412.308 193.239 409.167 192.456 406.152C191.556 402.633 190.656 399.204 189.837 395.865C189.657 395.118 189.45 394.371 189.27 393.642C188.622 391.074 187.989 388.581 187.371 386.163C186.993 384.678 186.624 383.229 186.264 381.789C185.904 380.349 185.517 378.882 185.157 377.478C185.058 377.1 184.968 376.731 184.869 376.371C184.77 376.011 184.671 375.561 184.572 375.165C184.473 374.769 184.32 374.193 184.203 373.716C184.059 373.212 183.942 372.708 183.816 372.213C183.564 371.268 183.33 370.341 183.105 369.432C182.754 368.091 182.421 366.777 182.097 365.49C181.962 364.932 181.809 364.374 181.674 363.825C181.44 362.925 181.215 362.025 181.008 361.206C180.855 360.639 180.72 360.081 180.585 359.532C180 357.282 179.469 355.167 178.965 353.232C178.83 352.71 178.704 352.197 178.569 351.702C178.362 350.802 178.146 350.028 177.948 349.227C177.813 348.732 177.687 348.246 177.579 347.778C177.138 346.086 176.742 344.547 176.409 343.188C176.31 342.828 176.22 342.486 176.139 342.144C175.914 341.244 175.698 340.461 175.527 339.75C175.455 339.462 175.392 339.192 175.32 338.94C175.248 338.688 175.176 338.4 175.113 338.157C175.05 337.914 175.032 337.815 174.996 337.662C174.96 337.509 174.87 337.194 174.816 336.996C174.801 336.895 174.776 336.796 174.744 336.699C174.591 336.114 174.519 335.799 174.519 335.799H269.919C269.919 335.799 273.06 346.599 278.091 364.095C279.108 367.65 280.215 371.484 281.394 375.561C284.769 387.162 288.666 400.761 292.869 415.467Z" fill="#37474F"/>
<path d="M210.888 415.467H208.44C204.84 400.467 201.324 385.422 197.892 370.332C197.07 366.666 196.257 362.997 195.453 359.325C195.381 358.974 195.309 358.641 195.228 358.29C195.228 358.256 195.239 358.223 195.26 358.196C195.281 358.169 195.311 358.15 195.344 358.142C195.377 358.133 195.412 358.136 195.443 358.15C195.474 358.164 195.5 358.188 195.516 358.218C195.516 358.335 195.579 358.443 195.615 358.551C196.722 362.493 197.829 366.444 198.909 370.395C203.049 385.38 207 400.41 210.888 415.467Z" fill="#263238"/>
<path d="M266.85 335.763L262.638 356.841L259.2 374.13L253.332 403.605L252.72 406.62L251.712 411.651L250.956 415.467H194.823C194.025 412.299 193.236 409.194 192.456 406.152C191.556 402.633 190.656 399.204 189.837 395.865C189.657 395.118 189.45 394.371 189.27 393.642C188.622 391.074 187.989 388.581 187.371 386.163C186.993 384.678 186.624 383.229 186.264 381.789C185.904 380.349 185.517 378.882 185.157 377.478C185.058 377.1 184.968 376.731 184.869 376.371C184.77 376.011 184.671 375.561 184.572 375.165C184.473 374.769 184.32 374.193 184.203 373.716C184.059 373.212 183.942 372.708 183.816 372.213C183.564 371.268 183.33 370.341 183.105 369.432C182.754 368.091 182.421 366.777 182.097 365.49C181.953 364.923 181.809 364.374 181.674 363.825C181.44 362.925 181.215 362.025 181.008 361.206C180.855 360.639 180.72 360.081 180.585 359.532C180 357.282 179.469 355.167 178.965 353.232C178.83 352.71 178.704 352.197 178.569 351.702C178.362 350.802 178.146 350.028 177.948 349.227C177.813 348.732 177.687 348.246 177.579 347.778C177.138 346.086 176.742 344.547 176.409 343.188C176.31 342.828 176.22 342.486 176.139 342.144C175.914 341.244 175.698 340.461 175.527 339.75C175.455 339.462 175.392 339.192 175.32 338.94C175.248 338.688 175.176 338.4 175.113 338.157C175.05 337.914 175.032 337.815 174.996 337.662C174.96 337.509 174.87 337.194 174.816 336.996C174.801 336.895 174.776 336.796 174.744 336.699C174.591 336.114 174.519 335.799 174.519 335.799L266.85 335.763Z" fill="#263238"/>
<path d="M266.868 335.7V335.745C266.868 336.258 266.463 341.955 265.545 350.64C265.284 353.169 264.978 355.95 264.645 358.938C264.087 363.645 263.385 368.838 262.53 374.328C261.063 383.904 259.155 394.353 256.662 404.568C255.762 408.24 254.862 411.885 253.782 415.449L130.608 415.494C130.608 415.494 127.008 408.708 127.323 405.117C128.448 390.717 136.872 335.745 136.872 335.745L248.58 335.7H266.868Z" fill="#37474F"/>
<path d="M255.6 347.04C255.465 351.45 255.276 355.851 254.988 360.234C254.691 364.995 254.259 369.738 253.638 374.481C253.626 374.656 253.605 374.83 253.575 375.003C252.99 379.449 252.333 383.886 251.577 388.305C250.866 392.436 250.344 396.882 248.517 400.698C247.826 402.173 246.847 403.495 245.637 404.586C244.525 405.599 243.165 406.301 241.695 406.62C241.456 406.681 241.212 406.723 240.966 406.746H240.759C240.802 406.774 240.837 406.813 240.861 406.859C240.885 406.904 240.896 406.956 240.894 407.007C240.84 408.492 240.894 409.995 240.714 411.453C240.714 411.516 240.714 411.579 240.714 411.642C240.561 412.92 240.327 414.189 240.093 415.458H237.978C237.978 415.458 237.978 415.404 237.978 415.386C238.347 413.991 238.662 412.587 239.004 411.183C239.346 409.779 239.85 408.348 240.183 406.899C240.212 406.855 240.252 406.821 240.3 406.8C238.959 406.865 237.63 406.518 236.493 405.805C235.355 405.092 234.463 404.048 233.937 402.813C233.226 400.923 233.55 398.961 233.838 397.017C234.225 394.497 234.594 391.977 234.981 389.457C235.701 384.822 236.628 380.232 237.447 375.624L237.825 373.527C239.472 364.149 241.2 354.771 243.279 345.474C243.351 345.087 243.441 344.709 243.522 344.322C243.541 344.273 243.577 344.233 243.622 344.207C243.667 344.18 243.72 344.17 243.772 344.177C243.823 344.185 243.871 344.209 243.908 344.247C243.944 344.284 243.967 344.333 243.972 344.385C243.909 345.006 243.846 345.636 243.774 346.257C243.414 349.821 242.988 353.376 242.496 356.922C241.902 361.08 241.488 365.265 240.903 369.432C240.705 370.845 240.507 372.258 240.3 373.68C239.337 380.52 238.347 387.369 237.177 394.191C236.628 397.359 234.657 403.029 239.211 404.019C240.257 404.244 241.349 404.108 242.307 403.632C244.332 402.624 245.808 400.311 246.546 398.277C247.833 394.677 248.292 390.645 248.967 386.874C249.717 382.674 250.38 378.495 250.956 374.337C251.703 369.108 252.468 363.897 253.287 358.677C253.701 356.013 254.121 353.355 254.547 350.703L255.141 347.013C255.15 346.707 255.6 346.779 255.6 347.04Z" fill="#263238"/>
<path d="M157.599 379.8C162.732 379.745 167.838 379.053 172.8 377.739C175.086 377.154 177.345 376.416 179.595 375.687C181.817 375.066 183.899 374.021 185.724 372.609C189.18 369.63 190.791 364.932 192.285 360.774C193.932 356.068 195.264 351.257 196.272 346.374C196.326 346.131 196.677 346.212 196.677 346.437C196.803 351.948 196.109 357.447 194.616 362.754C193.374 367.254 191.709 372.285 188.073 375.444C184.239 378.765 179.073 379.944 174.141 380.529C168.637 381.17 163.074 381.094 157.59 380.304C157.543 380.281 157.503 380.244 157.476 380.199C157.448 380.154 157.434 380.102 157.435 380.049C157.436 379.996 157.452 379.945 157.481 379.901C157.51 379.857 157.551 379.822 157.599 379.8Z" fill="#263238"/>
<path d="M149.067 346.545C148.788 353.439 141.867 393.489 141.174 407.124C141.057 409.563 145.998 413.028 145.872 415.467H143.559C143.721 413.082 138.807 409.671 138.96 407.286C139.86 393.561 147.96 353.412 148.473 346.527C148.475 346.448 148.509 346.374 148.566 346.32C148.624 346.266 148.7 346.237 148.779 346.239C148.858 346.241 148.932 346.275 148.986 346.332C149.04 346.39 149.069 346.466 149.067 346.545Z" fill="#263238"/>
<path d="M246.276 183.492C267.363 199.611 341.415 259.092 343.251 287.289C344.754 310.185 321.489 315.567 306.891 304.776C287.091 290.115 249.714 241.362 234.639 205.974C226.314 186.417 225.549 167.643 246.276 183.492Z" fill="#EB9481"/>
<path d="M258.183 256.365L316.539 230.022C316.539 230.022 261.099 186.606 241.182 178.443C218.781 169.254 218.979 182.718 227.682 204.03C236.385 225.342 258.183 256.365 258.183 256.365Z" fill="#534FD9"/>
<path d="M316.539 230.022L258.174 256.365C258.174 256.365 236.385 225.342 227.7 204.03C219.015 182.718 218.799 169.254 241.2 178.443C242.325 178.911 243.576 179.487 244.935 180.162L246.591 181.062C254.052 185.013 264.015 191.565 274.086 198.585L274.635 198.972C282.573 204.534 290.565 210.375 297.405 215.469L300.276 217.629C309.852 224.784 316.539 230.022 316.539 230.022Z" fill="#534FD9"/>
<path d="M316.539 230.022L258.174 256.365C258.174 256.365 236.385 225.342 227.7 204.03C219.015 182.718 218.799 169.254 241.2 178.443C242.325 178.911 243.576 179.487 244.935 180.162L246.591 181.062C254.052 185.013 264.015 191.565 274.086 198.585L274.635 198.972C282.573 204.534 290.565 210.375 297.405 215.469L300.276 217.629C309.852 224.784 316.539 230.022 316.539 230.022Z" fill="#534FD9"/>
<path d="M305.532 221.562C304.903 221.405 304.266 221.282 303.624 221.193C305.305 222.622 307.184 223.798 309.204 224.685L310.194 225.108L305.532 221.562ZM226.485 175.995C225.828 176.212 225.217 176.551 224.685 176.994C225.054 177.192 225.423 177.372 225.801 177.552C227.797 178.501 229.918 179.159 232.101 179.505C230.405 178.075 228.514 176.893 226.485 175.995ZM266.607 233.802C265.863 231.726 264.83 229.766 263.538 227.979C263.946 232.381 265.497 236.601 268.038 240.219C267.873 238.022 267.391 235.861 266.607 233.802ZM249.579 201.06C247.501 201.796 245.54 202.826 243.756 204.12C245.954 203.939 248.115 203.445 250.173 202.653C252.252 201.916 254.213 200.882 255.996 199.584C253.798 199.767 251.637 200.264 249.579 201.06Z" fill="white"/>
<path d="M303.651 223.362C301.491 223.965 283.176 231.885 279.234 233.694C275.292 235.503 259.101 242.694 255.177 244.953C255.139 244.969 255.108 244.999 255.092 245.037C255.076 245.075 255.076 245.117 255.092 245.155C255.107 245.194 255.137 245.224 255.175 245.24C255.213 245.256 255.256 245.256 255.294 245.241C259.542 243.819 275.895 236.565 279.945 234.81C283.995 233.055 301.95 224.802 303.804 223.623C303.957 223.524 303.804 223.326 303.651 223.362Z" fill="#263238"/>
<path opacity="0.1" d="M273.969 249.237L258.174 256.365C258.174 256.365 236.385 225.342 227.7 204.03C221.283 188.307 219.492 176.85 227.988 175.617L273.969 249.237Z" fill="black"/>
<path d="M272.52 342.351L135.306 345.951C135.306 345.951 128.547 338.958 129.573 330.714C133.362 300.267 181.773 193.554 200.601 180.729C209.034 174.987 227.097 170.496 237.141 178.029C252.747 189.729 268.245 273.33 277.092 320.517C279.621 334.026 272.61 342.216 272.52 342.351Z" fill="#EBEBEB"/>
<path d="M201.429 187.605C206.199 195.444 212.76 202.167 220.221 206.379C223.992 208.512 228.06 210.105 232.191 210.096C234.368 210.22 236.525 209.615 238.32 208.377C239.995 206.907 241.254 205.023 241.974 202.914C242.89 200.465 243.454 197.899 243.648 195.291C243.905 192.316 243.968 189.328 243.837 186.345C243.837 186.228 243.99 186.246 243.99 186.345C244.125 189.18 244.458 192.006 244.395 194.841C244.383 197.325 244.065 199.797 243.45 202.203C242.875 204.44 241.835 206.532 240.399 208.341C238.919 210.078 236.834 211.188 234.567 211.446C230.247 212.085 225.765 210.825 221.679 208.746C217.613 206.627 213.898 203.895 210.663 200.646C206.86 196.84 203.669 192.468 201.204 187.686C201.114 187.56 201.33 187.452 201.429 187.605Z" fill="#263238"/>
<path d="M204.48 175.5C204.48 175.5 210.24 225.162 210.888 248.211C211.536 271.26 204.48 401.922 204.48 401.922C204.48 401.922 148.311 391.239 141.3 389.385C134.289 387.531 115.254 369.099 115.254 369.099C115.254 369.099 159.228 210.348 204.48 175.5Z" fill="#534FD9"/>
<path d="M198.657 195.57C197.711 197.566 197.056 199.688 196.713 201.87C199.523 198.453 201.399 194.366 202.158 190.008C200.734 191.687 199.555 193.56 198.657 195.57ZM172.557 277.038C171.608 279.034 170.95 281.155 170.604 283.338C172.034 281.656 173.213 279.777 174.105 277.758C175.047 275.76 175.702 273.639 176.049 271.458C174.622 273.143 173.44 275.022 172.539 277.038H172.557ZM153.747 364.014C152.798 366.01 152.14 368.131 151.794 370.314C153.227 368.635 154.407 366.755 155.295 364.734C156.241 362.738 156.896 360.616 157.239 358.434C155.81 360.118 154.628 361.997 153.729 364.014H153.747ZM204.102 358.074C203.157 360.07 202.502 362.192 202.158 364.374C203.584 362.691 204.76 360.812 205.65 358.794C206.119 357.761 206.531 356.704 206.883 355.626C206.883 354.843 206.955 354.051 207 353.25C205.85 354.744 204.872 356.362 204.084 358.074H204.102ZM154.539 311.058C152.545 310.107 150.422 309.452 148.239 309.114C151.66 311.915 155.751 313.776 160.11 314.514C158.419 313.105 156.537 311.941 154.521 311.058H154.539ZM176.85 233.802C176.106 231.726 175.072 229.766 173.781 227.979C173.965 230.177 174.462 232.338 175.257 234.396C175.994 236.475 177.028 238.436 178.326 240.219C178.136 238.02 177.633 235.859 176.832 233.802H176.85ZM203.85 305.415C203.106 303.339 202.072 301.379 200.781 299.592C200.961 301.785 201.449 303.942 202.23 306C202.967 308.079 204.001 310.04 205.299 311.823C205.117 309.628 204.623 307.47 203.832 305.415H203.85ZM135.45 383.85C135.507 384.734 135.63 385.612 135.819 386.478C136.467 386.91 137.079 387.306 137.673 387.666C137.07 386.315 136.318 385.035 135.432 383.85H135.45ZM127.557 338.625C127.057 337.276 126.455 335.968 125.757 334.71C125.559 335.349 125.352 335.988 125.154 336.609C125.388 337.509 125.667 338.355 125.973 339.219C126.717 341.294 127.751 343.255 129.042 345.042C128.855 342.841 128.349 340.68 127.539 338.625H127.557ZM179.577 386.91C177.502 387.654 175.541 388.688 173.754 389.979C175.952 389.795 178.113 389.298 180.171 388.503C182.25 387.766 184.211 386.732 185.994 385.434C183.789 385.615 181.622 386.112 179.559 386.91H179.577ZM178.029 336.51C175.95 337.245 173.988 338.279 172.206 339.579C174.401 339.391 176.558 338.894 178.614 338.103C180.696 337.368 182.661 336.334 184.446 335.034C182.24 335.227 180.072 335.736 178.011 336.546L178.029 336.51ZM205.272 253.422C203.197 254.166 201.236 255.2 199.449 256.491C201.646 256.307 203.807 255.813 205.866 255.024C207.653 254.375 209.359 253.524 210.951 252.486V252.018C209 252.263 207.087 252.747 205.254 253.458L205.272 253.422Z" fill="white"/>
<path d="M237.141 178.011C243.837 186.345 253.809 235.017 254.493 239.985C255.177 244.953 275.4 396.108 275.4 396.108C275.4 396.108 287.766 383.823 288.72 379.8C289.674 375.777 276.642 302.958 270.612 275.859C263.808 245.259 253.269 200.736 246.15 190.188C241.2 182.79 237.141 178.011 237.141 178.011Z" fill="#534FD9"/>
<path d="M250.92 200.601C250.47 200.754 250.02 200.898 249.579 201.06C248.39 201.501 247.233 202.021 246.114 202.617L246.411 203.751C247.688 203.468 248.945 203.102 250.173 202.653L251.469 202.131L250.92 200.601ZM267.777 336.546L267.426 336.681C267.507 337.248 267.588 337.815 267.66 338.382L268.371 338.139C270.451 337.404 272.412 336.37 274.194 335.07C271.996 335.254 269.835 335.751 267.777 336.546ZM273.969 385.641C273.969 385.956 274.059 386.253 274.095 386.541C274.669 386.203 275.223 385.831 275.751 385.425C275.154 385.465 274.559 385.537 273.969 385.641ZM262.269 277.038C261.323 279.034 260.668 281.156 260.325 283.338C263.121 279.914 264.981 275.824 265.725 271.467C264.331 273.155 263.18 275.031 262.305 277.038H262.269Z" fill="white"/>
<path d="M173.943 200.7C135.486 247.131 92.4659 312.822 103.923 330.21C116.694 349.578 172.188 305.235 173.691 302.049C175.374 298.449 191.025 256.482 200.277 214.596C210.429 168.642 183.447 189.198 173.943 200.7Z" fill="#EB9481"/>
<path d="M107.235 332.361C121.014 341.667 159.03 345.609 223.929 334.242C232.929 332.667 214.821 270.072 205.146 271.242C192.96 272.736 145.989 281.142 142.632 282.231C114.3 291.123 97.893 326.043 107.235 332.361Z" fill="#EB9481"/>
<path d="M188.451 276.444C188.451 276.444 192.384 275.211 212.085 265.329C225.702 258.498 263.259 250.56 295.092 279.207C307.296 290.187 304.92 303.507 290.223 294.39C279.9 287.937 273.249 282.6 269.28 281.421C269.28 281.421 275.535 299.016 269.28 307.872C266.508 311.832 258.678 322.452 251.397 329.859C249.866 328.96 248.393 327.965 246.987 326.88C244.223 330.159 240.588 332.59 236.502 333.892C232.416 335.195 228.045 335.316 223.893 334.242L188.451 276.444Z" fill="#EB9481"/>
<path d="M226.125 260.883C233.856 262.881 250.182 267.39 262.251 275.724C275.652 284.976 298.989 306.414 292.05 316.224C286.965 323.424 277.344 316.026 277.344 316.026C277.344 316.026 285.12 326.916 279.099 332.424C273.618 337.437 266.499 331.263 266.499 331.263C266.499 331.263 270.099 338.679 263.862 342.495C256.392 347.085 250.119 330.795 238.536 328.887C235.953 328.5 226.125 260.883 226.125 260.883Z" fill="#EB9481"/>
<path d="M250.11 288.252C257.076 291.321 271.107 302.355 277.38 315.702C277.515 316.008 277.38 316.278 277.182 316.026C269.283 305.742 260.162 296.458 250.02 288.378C249.948 288.324 250.029 288.216 250.11 288.252Z" fill="#263238"/>
<path d="M241.2 302.058C246.933 305.325 260.892 317.358 266.778 331.083C266.913 331.389 266.778 331.65 266.562 331.398C259.205 320.727 250.664 310.924 241.101 302.175C241.002 302.121 241.092 302.013 241.2 302.058Z" fill="#263238"/>
<path d="M266.526 331.398C270.576 334.512 277.326 335.826 280.332 330.687C282.672 325.899 279.693 320.202 276.966 316.188L275.994 314.856C278.361 316.656 280.998 318.312 283.914 318.924C289.071 320.364 293.427 316.071 292.77 310.905C291.798 303.444 285.912 297.954 281.025 292.68C276.723 288.049 272.075 283.753 267.12 279.828C272.002 282.147 276.725 284.787 281.259 287.73C284.634 289.872 287.505 292.752 291.033 294.66C301.257 300.546 306.333 294.705 299.79 285.075C291.573 273.69 273.258 263.394 259.551 260.667C273.627 263.232 291.771 273.078 300.366 284.679C302.058 287.181 303.66 290.079 303.462 293.247C303.21 297.072 299.682 298.449 296.325 297.621C290.205 296.352 285.795 291.78 280.773 288.45C277.429 286.269 273.968 284.274 270.405 282.474L270.9 281.7C274.671 284.957 278.259 288.422 281.646 292.077C287.046 298.017 295.416 305.766 293.13 314.64C291.069 320.445 285.03 320.805 280.251 318.186C279.12 317.623 278.042 316.961 277.029 316.206L277.407 315.837C280.215 320.058 283.131 325.845 280.611 330.804C277.461 336.006 270.603 334.62 266.544 331.371L266.526 331.398Z" fill="#263238"/>
<path d="M121.662 297.747C123.948 295.389 130.716 287.901 141.093 283.347C150.147 279.378 176.94 275.085 183.537 274.617C183.708 274.617 183.762 274.797 183.6 274.842C177.849 276.48 152.1 280.926 142.407 285.03C134.953 288.284 128.02 292.621 121.833 297.9C121.707 297.999 121.554 297.9 121.662 297.747Z" fill="#263238"/>
<path d="M189 267.3L126 256.149C126 256.149 169.011 200.43 186.3 187.614C205.758 173.214 208.872 186.3 205.686 209.097C202.5 231.894 189 267.3 189 267.3Z" fill="#534FD9"/>
<path d="M176.832 233.802C176.088 231.726 175.054 229.766 173.763 227.979C173.947 230.177 174.444 232.338 175.239 234.396C175.976 236.475 177.01 238.436 178.308 240.219C178.124 238.021 177.627 235.86 176.832 233.802ZM139.284 239.337C138.619 240.389 138.018 241.48 137.484 242.604C136.538 244.6 135.883 246.722 135.54 248.904C136.964 247.22 138.14 245.341 139.032 243.324C139.943 241.398 140.588 239.358 140.949 237.258L139.284 239.337ZM198.684 195.57C197.738 197.566 197.083 199.688 196.74 201.87C199.55 198.453 201.426 194.366 202.185 190.008C200.752 191.686 199.564 193.558 198.657 195.57H198.684Z" fill="white"/>
<path d="M136.8 246.069C139.041 246.069 158.742 249.291 163.008 250.074C167.274 250.857 184.752 253.881 189.108 255.06C189.143 255.068 189.175 255.089 189.197 255.117C189.22 255.146 189.232 255.181 189.232 255.217C189.232 255.254 189.22 255.289 189.197 255.318C189.175 255.346 189.143 255.366 189.108 255.375C184.608 255.033 167.013 252.027 162.648 251.325C158.283 250.623 138.861 247.041 136.782 246.357C136.566 246.294 136.665 246.069 136.8 246.069Z" fill="#263238"/>
<path d="M186.129 266.652C188.055 266.85 189.243 266.922 189.243 266.922C191.412 258.246 194.193 249.363 196.731 240.822C199.314 232.092 202.131 223.461 204.831 214.722C204.831 214.587 205.074 214.65 205.038 214.785C203.823 219.807 202.599 224.811 201.33 229.797C201.6 229.203 201.87 228.609 202.131 227.997C203.085 225.882 204.084 223.794 204.966 221.643C205.038 221.463 205.317 221.544 205.254 221.733C204.594 223.977 203.785 226.175 202.833 228.312C202.14 229.815 201.357 231.246 200.547 232.677C199.8 235.539 199.08 238.392 198.252 241.245C195.732 249.966 193.608 259.83 190.413 268.335C188.905 268.018 187.422 267.591 185.976 267.057C185.937 267.028 185.908 266.987 185.894 266.94C185.88 266.893 185.882 266.843 185.899 266.797C185.917 266.751 185.948 266.712 185.99 266.686C186.031 266.66 186.08 266.648 186.129 266.652Z" fill="#263238"/>
<path d="M236.142 203.931C227.574 206.847 211.248 194.931 204.264 184.608C203.787 183.897 204.174 175.941 204.192 166.257C204.192 160.371 204.021 153.828 203.454 147.861C203.328 146.637 241.731 153.369 241.731 153.369C241.731 153.369 239.247 166.221 240.309 176.607C240.397 177.431 240.563 178.244 240.804 179.037C240.804 179.145 240.867 179.28 240.894 179.433C242.1 184.014 244.422 201.114 236.142 203.931Z" fill="#EB9481"/>
<path d="M241.731 153.369C240.642 159.396 240.079 165.506 240.048 171.63C221.877 177.876 207.522 168.192 204.192 165.645C204.192 159.921 204.012 153.621 203.454 147.87L241.731 153.369Z" fill="#263238"/>
<path d="M258.138 136.53C258.138 136.53 256.725 145.395 257.166 148.572C257.607 151.749 264.186 155.772 264.186 155.772C264.186 155.772 255.951 157.671 253.755 156.87C251.559 156.069 248.598 149.895 248.598 149.895C248.598 149.895 250.884 159.507 253.998 160.362C255.96 160.893 249.057 160.173 249.057 160.173C246.79 159.756 244.758 158.516 243.351 156.69C241.353 153.783 258.138 136.53 258.138 136.53Z" fill="#263238"/>
<path d="M259.983 103.5C261.882 117.297 248.814 154.179 238.095 161.145C222.552 171.243 200.16 168.84 192.357 150.858C184.779 133.425 202.662 85.662 214.353 79.65C231.57 70.794 257.184 83.124 259.983 103.5Z" fill="#EB9481"/>
<path d="M222.3 121.158C222.345 121.068 222.453 121.347 222.408 121.446C221.463 123.894 220.797 126.846 222.75 128.466C222.813 128.52 222.75 128.637 222.678 128.601C220.077 127.26 221.013 123.3 222.3 121.158Z" fill="#263238"/>
<path d="M225.414 119.34C229.509 120.438 227.025 128.538 223.236 127.53C219.447 126.522 221.985 118.431 225.414 119.34Z" fill="#263238"/>
<path d="M207.243 115.785C207.243 115.686 207.009 115.848 206.982 115.956C206.307 118.494 205.11 121.284 202.59 121.437C202.509 121.437 202.473 121.572 202.59 121.59C205.461 122.031 207 118.305 207.243 115.785Z" fill="#263238"/>
<path d="M205.785 112.5C201.834 110.979 199.089 118.998 202.743 120.402C206.397 121.806 209.097 113.76 205.785 112.5Z" fill="#263238"/>
<path d="M230.805 113.346C229.687 113.039 228.555 112.79 227.412 112.599C226.098 112.329 225.09 111.978 223.812 112.5C223.463 112.688 223.186 112.985 223.023 113.346C222.86 113.707 222.821 114.112 222.912 114.498C223.398 116.127 224.91 116.856 226.512 117.243C228.069 117.695 229.739 117.548 231.192 116.829C231.516 116.645 231.779 116.369 231.948 116.037C232.117 115.705 232.185 115.331 232.144 114.96C232.103 114.59 231.954 114.239 231.716 113.953C231.478 113.666 231.161 113.455 230.805 113.346Z" fill="#263238"/>
<path d="M205.875 103.374C207.029 103.488 208.189 103.539 209.349 103.527C210.681 103.527 211.743 103.743 212.949 103.005C213.26 102.762 213.482 102.423 213.581 102.04C213.68 101.658 213.651 101.254 213.498 100.89C212.733 99.369 211.113 98.91 209.511 98.793C207.912 98.6267 206.309 99.0597 205.011 100.008C203.553 100.971 204.3 103.167 205.875 103.374Z" fill="#263238"/>
<path d="M215.424 140.976C212.643 138.717 208.44 137.844 205.749 137.376C205.479 137.241 205.389 136.593 205.434 136.305C205.434 136.215 207.234 131.058 207.234 131.058C206.424 131.193 202.374 131.67 202.734 130.698C205.812 122.598 209.241 113.598 214.011 106.227C214.044 106.182 214.092 106.151 214.146 106.137C214.2 106.123 214.257 106.128 214.307 106.151C214.358 106.175 214.399 106.214 214.423 106.264C214.448 106.314 214.455 106.371 214.443 106.425C211.788 114.318 207.765 121.725 204.984 129.564C206.244 129.492 208.341 129.276 209.331 129.609C209.583 129.771 207.126 135.054 206.946 135.909C206.946 135.909 212.472 135.981 215.775 139.905C216.666 140.913 216.756 142.047 215.424 140.976Z" fill="#263238"/>
<path d="M218.43 146.304C217.656 146.691 216.801 147.303 215.883 147.096C214.967 146.78 214.128 146.278 213.417 145.62C213.402 145.608 213.385 145.602 213.366 145.6C213.347 145.599 213.329 145.604 213.313 145.614C213.297 145.624 213.285 145.638 213.278 145.656C213.271 145.673 213.269 145.692 213.273 145.71C213.469 146.309 213.824 146.843 214.299 147.257C214.774 147.67 215.353 147.947 215.973 148.059C216.528 148.098 217.082 147.97 217.563 147.691C218.045 147.411 218.431 146.994 218.673 146.493C218.7 146.358 218.547 146.25 218.43 146.304Z" fill="#263238"/>
<path d="M252.72 136.395C246.879 132.381 250.92 109.638 250.92 109.638L245.7 121.113C245.7 121.113 242.1 115.434 241.542 109.314C241.155 104.949 243.468 99.792 244.971 97.38C244.971 97.38 235.305 102.474 226.323 101.88C223.02 101.664 200.709 94.041 201.177 92.646C202.5 88.506 216.306 76.689 223.2 74.754C231.147 72.522 241.83 71.37 253.458 80.973C265.086 90.576 265.698 100.341 265.437 107.658C265.176 114.975 254.862 137.871 252.72 136.395Z" fill="#263238"/>
<path d="M246.285 134.703C246.285 134.703 257.985 125.028 262.602 129.519C267.219 134.01 256.104 149.661 249.102 150.282C248.204 150.423 247.286 150.38 246.404 150.156C245.523 149.933 244.695 149.533 243.972 148.982C243.249 148.43 242.645 147.738 242.196 146.947C241.748 146.156 241.464 145.282 241.362 144.378L246.285 134.703Z" fill="#EB9481"/>
<path d="M259.308 133.929C259.407 133.929 259.389 134.1 259.308 134.109C254.331 134.685 250.821 138.186 247.977 142.038C249.777 140.751 251.838 140.346 253.62 142.542C253.71 142.659 253.548 142.812 253.431 142.749C252.712 142.281 251.866 142.048 251.008 142.08C250.151 142.112 249.325 142.409 248.643 142.929C247.513 143.812 246.478 144.81 245.556 145.908C245.232 146.25 244.575 145.836 244.854 145.413C244.872 145.381 244.893 145.351 244.917 145.323C246.366 139.581 253.008 132.804 259.308 133.929Z" fill="#263238"/>
<path d="M237.438 73.152C242.77 72.572 248.158 72.7751 253.431 73.755C259.29 74.961 276.561 82.359 279.603 87.354C282.645 92.349 278.091 109.44 277.371 111.924C276.651 114.408 270.54 128.808 263.979 130.563C257.418 132.318 265.437 107.037 259.821 95.841C254.205 84.645 237.438 73.152 237.438 73.152Z" fill="#534FD9"/>
<path opacity="0.1" d="M237.429 73.1519C237.429 73.1519 254.205 84.6449 259.812 95.8409C265.419 107.037 257.4 132.3 263.988 130.563C266.877 129.798 268.812 127.863 271.116 124.263C272.493 116.55 273.393 104.166 269.955 94.2029C266.742 84.8699 258.156 77.7959 248.013 73.0169C244.487 72.7647 240.947 72.8099 237.429 73.1519Z" fill="black"/>
<path d="M257.454 144.963C259.254 138.114 258.534 117.9 254.889 105.21C251.244 92.52 232.308 79.398 229.32 78.57C222.057 76.563 218.916 77.895 217.998 76.878C217.08 75.861 226.242 72.999 228.654 72.477C231.066 71.955 237.411 70.956 240.48 72.09C243.549 73.224 261.99 81.594 266.157 92.088C270.324 102.582 272.394 128.727 268.605 133.947C267.705 135.207 265.527 135.477 264.258 137.259C262.593 139.599 261.018 142.434 259.614 143.991C258.48 145.242 257.301 145.557 257.454 144.963Z" fill="#534FD9"/>
<path d="M254.817 100.044C256.79 99.6051 258.722 99.0031 260.595 98.2439C262.5 97.4956 264.312 96.5292 265.995 95.3639C266.112 95.2739 266.265 95.4359 266.157 95.5349C264.615 96.9779 262.853 98.1658 260.937 99.0539C259.017 99.8954 256.957 100.372 254.862 100.458C254.619 100.449 254.601 100.089 254.817 100.044Z" fill="#263238"/>
<path d="M259.794 138.303C260.145 137.889 260.604 137.565 260.991 137.178C261.435 136.74 261.833 136.257 262.179 135.738C262.688 134.676 263.313 133.674 264.042 132.75C264.747 132.097 265.526 131.529 266.364 131.058C267.351 130.584 268.143 129.783 268.605 128.79C268.61 128.775 268.617 128.762 268.627 128.75C268.637 128.738 268.65 128.728 268.663 128.721C268.677 128.714 268.692 128.71 268.708 128.708C268.723 128.707 268.739 128.709 268.754 128.714C268.768 128.718 268.782 128.726 268.794 128.736C268.806 128.746 268.815 128.758 268.823 128.772C268.83 128.786 268.834 128.801 268.835 128.816C268.837 128.832 268.835 128.847 268.83 128.862C268.146 130.896 266.292 131.868 264.825 133.272C263.925 134.172 263.493 135.414 262.728 136.431C262.088 137.434 261.141 138.204 260.028 138.627C259.848 138.663 259.668 138.456 259.794 138.303Z" fill="#263238"/>
<path d="M259.938 130.293C260.838 129.744 261.738 129.294 262.593 128.664C263.398 128.043 264.162 127.369 264.879 126.648C265.59 125.946 266.238 125.181 266.931 124.461C267.759 123.615 268.731 122.85 269.469 121.968C269.568 121.851 269.721 122.031 269.622 122.139C268.821 123.039 268.164 124.119 267.39 125.073C266.706 125.886 265.97 126.652 265.185 127.368C264.451 128.065 263.652 128.692 262.8 129.24C261.954 129.818 260.998 130.216 259.992 130.41C259.977 130.417 259.959 130.418 259.943 130.412C259.927 130.406 259.914 130.394 259.907 130.379C259.899 130.363 259.899 130.345 259.905 130.329C259.911 130.313 259.923 130.3 259.938 130.293Z" fill="#263238"/>
<path d="M259.731 122.931C261.541 122.219 263.239 121.249 264.771 120.051C266.247 118.881 267.669 117.603 269.073 116.334C269.163 116.244 269.334 116.379 269.244 116.487C268.082 118.076 266.731 119.518 265.221 120.78C264.471 121.379 263.656 121.892 262.791 122.31C261.835 122.709 260.835 122.993 259.812 123.156C259.686 123.183 259.596 122.985 259.731 122.931Z" fill="#263238"/>
<path d="M259.2 115.767C260.065 115.53 260.875 115.126 261.585 114.579C262.413 114.03 263.241 113.454 264.042 112.86C264.843 112.266 265.599 111.726 266.364 111.15C267.179 110.62 267.872 109.924 268.398 109.107C268.461 108.99 268.659 109.107 268.605 109.206C268.223 110.096 267.659 110.896 266.949 111.555C266.21 112.325 265.406 113.03 264.546 113.661C263.7 114.281 262.813 114.844 261.891 115.344C261.103 115.858 260.176 116.119 259.236 116.091C259.193 116.096 259.15 116.083 259.116 116.056C259.082 116.029 259.061 115.99 259.056 115.947C259.051 115.904 259.064 115.861 259.091 115.827C259.118 115.793 259.157 115.772 259.2 115.767Z" fill="#263238"/>
<path d="M260.001 107.181C260.829 106.785 261.648 106.38 262.44 105.921C263.232 105.462 263.997 104.958 264.762 104.454C265.527 103.95 266.364 103.401 267.129 102.816C267.153 102.796 267.184 102.786 267.215 102.788C267.246 102.791 267.275 102.806 267.295 102.829C267.316 102.853 267.326 102.884 267.323 102.916C267.321 102.947 267.306 102.976 267.282 102.996C266.649 103.719 265.96 104.39 265.221 105.003C264.48 105.595 263.698 106.133 262.881 106.614C262.076 107.099 261.24 107.532 260.379 107.91C259.538 108.343 258.621 108.609 257.679 108.693C257.646 108.692 257.613 108.682 257.587 108.662C257.56 108.642 257.539 108.615 257.529 108.584C257.518 108.552 257.517 108.518 257.526 108.486C257.535 108.454 257.554 108.426 257.58 108.405C258.344 107.917 259.155 107.507 260.001 107.181Z" fill="#263238"/>
<path d="M250.974 94.4999C251.919 93.9059 252.837 93.3209 253.827 92.8079C254.838 92.2963 255.878 91.8425 256.941 91.4489C258.994 90.6367 261.131 90.0571 263.313 89.7209C263.439 89.7209 263.529 89.8829 263.394 89.9369C259.317 91.5659 255.159 93.0329 251.091 94.7069C251.063 94.7225 251.031 94.7264 251.001 94.718C250.97 94.7096 250.944 94.6894 250.929 94.6619C250.913 94.6345 250.909 94.602 250.918 94.5716C250.926 94.5412 250.946 94.5155 250.974 94.4999Z" fill="#263238"/>
<path d="M248.877 87.399C249.825 86.8296 250.833 86.3678 251.883 86.022C254.101 85.3566 256.386 84.94 258.696 84.78C258.724 84.7776 258.752 84.7853 258.774 84.8016C258.797 84.818 258.813 84.842 258.82 84.8692C258.826 84.8965 258.823 84.9252 258.81 84.9501C258.797 84.975 258.776 84.9945 258.75 85.005C256.617 85.572 254.484 86.094 252.396 86.805C251.343 87.1197 250.309 87.4954 249.3 87.93C248.31 88.38 247.437 89.028 246.474 89.523C246.402 89.523 246.303 89.469 246.357 89.397C247.06 88.5742 247.916 87.8956 248.877 87.399Z" fill="#263238"/>
<path d="M244.206 82.89C245.095 82.3127 246.042 81.8301 247.032 81.45C248.906 80.7206 250.89 80.3129 252.9 80.244C253.035 80.244 253.044 80.442 252.9 80.469C250.939 80.906 249.018 81.5082 247.158 82.269C246.258 82.647 245.313 83.07 244.395 83.484C243.519 83.98 242.617 84.4306 241.695 84.834C241.614 84.834 241.569 84.753 241.623 84.699C242.423 84.0135 243.288 83.4076 244.206 82.89Z" fill="#263238"/>
<path d="M241.308 78.183C242.208 77.85 243.108 77.571 244.008 77.283C244.895 76.9627 245.828 76.7864 246.771 76.761C246.802 76.761 246.832 76.7733 246.854 76.7953C246.876 76.8172 246.888 76.847 246.888 76.878C246.888 76.909 246.876 76.9388 246.854 76.9607C246.832 76.9827 246.802 76.995 246.771 76.995C245.034 77.616 243.297 78.282 241.578 78.939C240.029 79.6552 238.56 80.533 237.195 81.558C237.132 81.603 237.051 81.558 237.096 81.45C238.138 79.9607 239.606 78.8217 241.308 78.183Z" fill="#263238"/>
<path d="M236.7 75.4019C238.402 74.6375 240.236 74.2067 242.1 74.1329C242.235 74.1329 242.253 74.3489 242.1 74.3669C240.325 74.6666 238.605 75.2309 236.997 76.0409C235.384 76.836 233.86 77.8015 232.452 78.9209C232.38 78.9749 232.263 78.9209 232.326 78.8129C233.5 77.352 234.997 76.1842 236.7 75.4019Z" fill="#263238"/>
<path d="M229.068 76.158C229.347 75.8624 229.648 75.5886 229.968 75.339C230.62 74.825 231.326 74.3844 232.074 74.025C233.61 73.3204 235.215 72.7746 236.862 72.396C237.006 72.396 237.06 72.585 236.916 72.621C235.326 73.0385 233.792 73.6427 232.344 74.421C231.633 74.7998 230.95 75.2299 230.301 75.708C229.986 75.942 229.68 76.194 229.401 76.455C229.127 76.7369 228.826 76.9902 228.501 77.211C228.481 77.2201 228.459 77.2234 228.437 77.2205C228.415 77.2176 228.394 77.2085 228.378 77.1944C228.361 77.1803 228.348 77.1617 228.341 77.1408C228.334 77.1198 228.334 77.0974 228.339 77.076C228.519 76.7251 228.767 76.4132 229.068 76.158Z" fill="#263238"/>
<path d="M224.919 75.15C225.475 74.7543 226.055 74.3937 226.656 74.07C227.234 73.7282 227.836 73.4274 228.456 73.17C229.104 72.909 229.77 72.684 230.409 72.405C230.562 72.333 230.643 72.558 230.481 72.621C229.827 72.8681 229.195 73.1691 228.591 73.521C228.015 73.854 227.439 74.169 226.863 74.493L225.135 75.474C224.574 75.8504 223.991 76.193 223.389 76.5C223.29 76.5 223.218 76.428 223.29 76.347C223.784 75.8853 224.331 75.4835 224.919 75.15Z" fill="#263238"/>
<path d="M319.743 305.1C335.169 315.117 348.543 297.63 347.94 284.805C346.5 254.682 317.943 206.505 301.095 190.116C294.795 183.996 255.438 219.087 259.02 227.754C262.926 237.195 291.042 286.443 319.743 305.1Z" fill="#EB9481"/>
<path d="M270.612 248.22C276.318 256.041 284.202 267.021 289.989 274.599C296.649 283.185 303.174 291.996 311.481 299.088C296.325 289.278 279.504 264.132 270.612 248.22Z" fill="#263238"/>
<path d="M261.342 171.747C262.791 166.068 257.94 154.314 257.796 146.124C257.652 137.934 264.996 130.644 267.696 132.408C270.396 134.172 269.28 137.763 273.744 149.247C276.624 156.636 288.774 168.417 292.491 182.547C294.39 189.603 259.893 177.435 261.342 171.747Z" fill="#EB9481"/>
<path d="M261.342 171.747C262.791 166.068 257.94 154.314 257.796 146.124C257.652 137.934 264.996 130.644 267.696 132.408C270.396 134.172 269.28 137.763 273.744 149.247C276.624 156.636 288.774 168.417 292.491 182.547C294.39 189.603 259.893 177.435 261.342 171.747Z" fill="#EB9481"/>
<path opacity="0.1" d="M261.342 171.747C262.791 166.068 257.94 154.314 257.796 146.124C257.652 137.934 264.996 130.644 267.696 132.408C270.396 134.172 269.28 137.763 273.744 149.247C276.624 156.636 288.774 168.417 292.491 182.547C294.39 189.603 259.893 177.435 261.342 171.747Z" fill="black"/>
<path d="M215.928 151.866C213.282 158.706 230.688 163.8 230.688 163.8C230.688 163.8 225.711 164.7 222.921 168.723C219.717 173.286 225.468 180.297 225.468 180.297C222.418 181.676 219.854 183.94 218.106 186.795C215.487 191.466 220.275 199.395 220.275 199.395C220.275 199.395 216.792 203.724 217.404 209.187C218.439 218.52 231.876 223.821 239.544 228.753C247.761 234.036 267.561 235.53 272.043 239.931L302.517 192.276C302.517 192.276 274.545 157.023 264.249 153.648C255.6 150.795 219.969 141.426 215.928 151.866Z" fill="#EB9481"/>
<path d="M230.895 163.656C240.84 164.466 250.569 167.652 259.92 170.856C259.963 170.872 259.998 170.904 260.017 170.945C260.037 170.986 260.039 171.034 260.023 171.077C260.008 171.12 259.976 171.155 259.935 171.174C259.893 171.193 259.846 171.196 259.803 171.18C250.542 167.913 240.183 167.04 230.805 164.151C230.739 164.139 230.681 164.102 230.643 164.047C230.605 163.992 230.591 163.924 230.602 163.859C230.614 163.793 230.652 163.735 230.707 163.697C230.762 163.659 230.829 163.644 230.895 163.656Z" fill="#263238"/>
<path d="M225.981 179.694C228.222 180.098 230.401 180.793 232.461 181.764C234.693 182.664 236.916 183.564 239.13 184.536C243.552 186.462 247.926 188.496 252.252 190.638C252.441 190.737 252.342 191.052 252.135 190.962C247.725 189.054 243.288 187.209 238.797 185.49C236.547 184.626 234.294 183.78 232.038 182.952C229.847 182.313 227.734 181.431 225.738 180.324C225.677 180.278 225.632 180.213 225.611 180.14C225.59 180.067 225.594 179.988 225.621 179.917C225.649 179.846 225.699 179.786 225.764 179.745C225.829 179.705 225.905 179.687 225.981 179.694Z" fill="#263238"/>
<path d="M220.5 199.449C222.462 199.593 224.469 200.808 226.233 201.618C228.231 202.536 230.232 203.436 232.236 204.318C236.25 206.118 240.264 207.918 244.341 209.547C244.539 209.637 244.431 209.952 244.224 209.871C240.075 208.215 235.908 206.613 231.777 204.921C229.743 204.093 227.727 203.247 225.702 202.392C223.983 201.663 221.76 200.952 220.401 199.62C220.394 199.602 220.391 199.583 220.392 199.564C220.394 199.545 220.4 199.527 220.409 199.511C220.419 199.494 220.432 199.48 220.447 199.469C220.463 199.459 220.481 199.452 220.5 199.449Z" fill="#263238"/>
<path d="M221.796 217.017C216.225 211.815 215.325 205.317 219.996 199.116V199.755C217.593 195.948 215.388 191.016 217.377 186.525C219.055 183.194 221.988 180.665 225.531 179.496L225.144 180.927C220.329 176.13 219.168 166.977 226.305 163.755C227.219 163.353 228.197 163.116 229.194 163.053L228.942 164.754C224.442 163.062 220.095 161.1 216.765 157.554C213.651 154.08 214.731 149.706 219.33 148.437C225.009 146.835 231.03 147.402 236.772 147.906C241.376 148.374 245.954 149.074 250.488 150.003C243.637 148.954 236.719 148.404 229.788 148.356C226.38 148.258 222.978 148.683 219.699 149.616C217.719 150.237 215.928 151.677 216.414 153.9C217.818 158.688 225.135 161.442 229.464 163.134L233.478 164.547L229.212 164.835C227.644 164.969 226.171 165.642 225.044 166.74C223.916 167.838 223.204 169.292 223.029 170.856C222.471 174.591 224.73 178.227 227.277 180.756L225.945 181.161C222.853 182.175 220.273 184.345 218.745 187.218C216.945 191.079 218.943 195.678 220.914 199.152L221.13 199.503L220.896 199.8C216.117 205.596 216.846 211.599 221.796 217.026V217.017Z" fill="#263238"/>
<path d="M318.6 338.652C320.181 339.55 321.848 340.286 323.577 340.848C325.217 341.489 326.909 341.985 328.635 342.333C329.054 342.42 329.488 342.403 329.899 342.283C330.31 342.164 330.685 341.946 330.993 341.649C331.078 341.564 331.153 341.471 331.218 341.37C331.257 341.358 331.292 341.332 331.315 341.298C331.337 341.264 331.348 341.222 331.344 341.181C331.344 341.181 331.497 341.055 331.551 341.01C331.68 340.898 331.792 340.767 331.884 340.623C332.055 340.38 332.19 340.092 332.064 340.038C332.312 339.021 332.312 337.959 332.064 336.942C331.758 335.168 331.361 333.411 330.876 331.677C330.432 330.044 329.829 328.458 329.076 326.943C328.599 325.989 327.969 324.594 326.79 324.378C326.468 324.316 326.134 324.367 325.845 324.522C325.802 324.534 325.762 324.556 325.728 324.585C325.476 324.758 325.26 324.979 325.093 325.235C324.926 325.492 324.812 325.778 324.756 326.079C324.468 327.357 325.071 328.671 325.656 329.796C326.385 331.335 327.141 332.856 327.897 334.377C327.456 333.765 326.997 333.135 326.556 332.523C325.35 330.894 324.108 329.301 322.794 327.762C321.894 326.7 320.859 325.215 319.437 324.81C319.103 324.708 318.751 324.681 318.406 324.73C318.06 324.78 317.73 324.906 317.439 325.098C317.354 325.165 317.272 325.237 317.196 325.314C317.058 325.466 316.945 325.639 316.863 325.827C316.744 326.279 316.742 326.755 316.857 327.208C316.972 327.661 317.2 328.078 317.52 328.419C318.676 329.862 319.924 331.23 321.255 332.514C322.569 333.918 323.901 335.304 325.269 336.654L325.962 337.338C324.081 336.096 322.173 334.881 320.301 333.666C319.176 332.928 317.871 332.136 316.476 332.604C316.027 332.748 315.639 333.04 315.378 333.432C315.334 333.495 315.295 333.561 315.261 333.63C315.261 333.675 315.216 333.729 315.189 333.783C315.166 333.832 315.147 333.883 315.135 333.936C314.982 334.413 314.982 334.926 315.135 335.403C315.612 336.924 317.295 337.896 318.6 338.652Z" fill="#534FD9"/>
<path opacity="0.1" d="M315.144 333.9C317.043 335.925 319.644 337.149 322.182 338.283C325.044 339.552 328.005 340.623 330.984 341.622C331.069 341.537 331.144 341.444 331.209 341.343C331.248 341.331 331.283 341.305 331.305 341.271C331.328 341.237 331.339 341.195 331.335 341.154C331.335 341.154 331.488 341.028 331.542 340.983C331.671 340.871 331.783 340.74 331.875 340.596L331.686 340.335C331.326 337.691 330.684 335.093 329.769 332.586C328.869 329.886 328.068 326.457 325.863 324.486C325.82 324.498 325.78 324.519 325.746 324.549C326.077 327.337 326.802 330.064 327.897 332.649C328.593 334.449 329.316 336.264 330.066 338.094C328.446 335.943 326.763 333.846 324.963 331.857C323.568 330.309 322.11 328.806 320.58 327.402C319.632 326.463 318.56 325.658 317.394 325.008C317.308 325.075 317.227 325.147 317.151 325.224C318.726 328.302 321.399 330.777 323.748 333.243C326.241 335.871 328.716 338.526 331.245 341.127C328.68 339.57 325.845 338.319 323.226 336.951C320.712 335.51 318.069 334.305 315.333 333.351C315.289 333.414 315.249 333.48 315.216 333.549C318.036 334.663 320.783 335.953 323.442 337.41C325.791 338.634 328.221 339.777 330.534 341.091C327.996 340.191 325.449 339.291 322.974 338.247C320.229 337.077 317.34 335.781 315.144 333.702C315.135 333.768 315.135 333.834 315.144 333.9ZM331.398 339.885L330.93 339.237C328.79 334.559 327.109 329.686 325.908 324.684C327.879 326.781 328.671 330.084 329.553 332.694C330.405 335.033 331.023 337.451 331.398 339.912V339.885ZM324.315 333.414C321.754 330.897 319.422 328.156 317.349 325.224C320.278 327.332 322.922 329.809 325.215 332.595C327.123 334.755 328.905 337.032 330.615 339.354C330.786 339.768 330.975 340.173 331.155 340.587C328.905 338.202 326.601 335.835 324.315 333.441V333.414Z" fill="black"/>
<path d="M327.834 342.783C330.027 344.479 332.36 345.984 334.809 347.283C335.898 347.823 337.509 346.248 336.798 344.772C336.483 344.106 333.486 339.012 332.946 338.139C332.316 337.104 330.066 339.039 329.472 339.516C328.698 340.2 327.177 342 327.834 342.783Z" fill="#263238"/>
<path d="M333.432 343.512C336.681 346.188 339.589 349.253 342.09 352.638C344.623 355.914 346.852 359.415 348.75 363.096C352.575 370.485 355.383 378.864 355.797 387.225C355.797 387.441 355.491 387.513 355.455 387.288C353.997 379.044 351.855 371.133 347.994 363.663C346.099 359.996 343.885 356.503 341.379 353.223C338.767 349.988 335.969 346.908 333 343.998C332.721 343.728 333.135 343.287 333.432 343.512Z" fill="#263238"/>
<path d="M326.385 358.866C327.473 359.205 328.591 359.437 329.724 359.559C330.809 359.74 331.908 359.827 333.009 359.82C333.276 359.816 333.538 359.747 333.773 359.62C334.008 359.493 334.209 359.312 334.359 359.091C334.404 359.03 334.44 358.964 334.467 358.893C334.489 358.881 334.506 358.862 334.514 358.839C334.522 358.815 334.521 358.79 334.512 358.767L334.62 358.623C334.69 358.545 334.742 358.453 334.773 358.353C334.854 358.173 334.899 357.984 334.773 357.966C334.801 357.314 334.668 356.665 334.386 356.076C333.963 355.032 333.486 353.997 332.973 352.998C332.494 352.045 331.925 351.141 331.272 350.298C330.849 349.776 330.291 349.002 329.535 349.029C329.331 349.033 329.134 349.106 328.977 349.236C328.952 349.249 328.93 349.267 328.914 349.29C328.649 349.569 328.504 349.94 328.509 350.325C328.598 351.139 328.952 351.901 329.517 352.494C330.165 353.34 330.822 354.177 331.488 355.005L330.417 354.042C329.472 353.205 328.509 352.386 327.501 351.621C326.834 350.945 325.993 350.469 325.071 350.244C324.853 350.225 324.633 350.254 324.427 350.331C324.222 350.407 324.036 350.528 323.883 350.685C323.837 350.734 323.797 350.788 323.766 350.847C323.693 350.955 323.647 351.078 323.631 351.207C323.615 351.497 323.674 351.787 323.802 352.049C323.929 352.31 324.121 352.535 324.36 352.701C325.255 353.435 326.196 354.112 327.177 354.726C328.167 355.419 329.157 356.094 330.165 356.742L330.678 357.066L326.745 355.554C326.372 355.34 325.954 355.215 325.525 355.188C325.096 355.162 324.666 355.235 324.27 355.401C324.011 355.544 323.811 355.774 323.703 356.049C323.681 356.092 323.663 356.138 323.649 356.184C323.645 356.217 323.645 356.25 323.649 356.283C323.645 356.319 323.645 356.355 323.649 356.391C323.621 356.704 323.69 357.018 323.847 357.291C324.342 358.2 325.503 358.569 326.385 358.866Z" fill="#534FD9"/>
<path opacity="0.1" d="M323.667 356.4C325.158 357.317 326.816 357.928 328.545 358.2C330.462 358.614 332.415 358.884 334.359 359.1C334.404 359.039 334.44 358.973 334.467 358.902C334.489 358.891 334.506 358.871 334.514 358.848C334.522 358.825 334.522 358.799 334.512 358.776L334.62 358.632C334.69 358.554 334.743 358.462 334.773 358.362L334.629 358.218C334.065 356.645 333.335 355.136 332.451 353.718C331.551 352.188 330.651 350.19 329.013 349.272C328.988 349.285 328.966 349.303 328.95 349.326C329.509 350.998 330.306 352.58 331.317 354.024C331.971 355.05 332.646 356.067 333.342 357.075C332.082 355.968 330.777 354.906 329.418 353.916C328.365 353.151 327.276 352.422 326.16 351.756C325.457 351.309 324.697 350.958 323.901 350.712C323.855 350.761 323.816 350.815 323.784 350.874C325.143 352.548 327.096 353.718 328.851 354.924C330.606 356.13 332.577 357.516 334.458 358.776C332.658 358.155 330.804 357.759 329.013 357.264C327.29 356.705 325.518 356.307 323.721 356.076C323.699 356.119 323.681 356.165 323.667 356.211C325.538 356.526 327.386 356.959 329.202 357.507C330.795 357.957 332.433 358.344 334.017 358.848C332.352 358.623 330.678 358.416 329.022 358.083C327.13 357.808 325.301 357.198 323.622 356.283C323.632 356.324 323.647 356.363 323.667 356.4ZM334.386 357.957C334.269 357.84 334.143 357.732 334.017 357.624C332.106 355.035 330.448 352.268 329.067 349.362C330.543 350.388 331.452 352.305 332.334 353.79C333.153 355.115 333.84 356.517 334.386 357.975V357.957ZM329.22 354.906C327.326 353.703 325.546 352.329 323.901 350.802C325.965 351.716 327.903 352.89 329.67 354.294C331.11 355.374 332.496 356.526 333.846 357.732C334.008 357.966 334.17 358.191 334.341 358.416C332.64 357.3 330.921 356.094 329.22 354.924V354.906Z" fill="black"/>
<path d="M332.586 360.198C334.147 360.932 335.766 361.534 337.428 361.998C338.166 362.187 338.949 361.017 338.328 360.198C338.049 359.829 335.547 357.102 335.115 356.598C334.683 356.094 333.459 357.498 333.162 357.894C332.865 358.29 332.1 359.802 332.586 360.198Z" fill="#263238"/>
<path d="M336.096 359.919C338.437 361.14 340.614 362.652 342.576 364.419C344.542 366.095 346.35 367.947 347.976 369.954C351.401 373.999 353.931 378.722 355.401 383.814C355.401 383.94 355.257 384.03 355.203 383.895C353.367 379.032 350.796 374.479 347.58 370.395C345.947 368.397 344.14 366.547 342.18 364.869C340.171 363.227 338.067 361.703 335.88 360.306C335.7 360.144 335.889 359.811 336.096 359.919Z" fill="#263238"/>
<path d="M399.474 366.795C397.813 367.538 396.083 368.114 394.308 368.514C392.615 368.994 390.883 369.328 389.133 369.513C388.709 369.558 388.28 369.5 387.884 369.343C387.487 369.187 387.135 368.936 386.856 368.613C386.777 368.522 386.708 368.422 386.649 368.316C386.612 368.3 386.581 368.272 386.563 368.235C386.545 368.199 386.54 368.157 386.55 368.118C386.489 368.048 386.423 367.981 386.352 367.92C386.228 367.802 386.127 367.662 386.055 367.506C385.902 367.245 385.794 366.948 385.929 366.912C385.771 365.876 385.866 364.816 386.208 363.825C386.685 362.097 387.243 360.369 387.891 358.695C388.488 357.128 389.233 355.622 390.114 354.195C390.681 353.295 391.437 351.954 392.634 351.855C392.952 351.832 393.268 351.914 393.534 352.089C393.575 352.106 393.611 352.13 393.642 352.161C393.878 352.358 394.072 352.599 394.214 352.871C394.356 353.142 394.443 353.44 394.47 353.745C394.473 355.043 394.052 356.307 393.273 357.345C392.391 358.803 391.491 360.252 390.573 361.692L392.085 359.973C393.435 358.461 394.83 356.994 396.279 355.59C397.296 354.618 398.448 353.241 399.879 352.962C400.22 352.894 400.572 352.902 400.91 352.986C401.248 353.07 401.563 353.228 401.832 353.448C401.916 353.517 401.991 353.596 402.057 353.682C402.183 353.846 402.278 354.032 402.336 354.231C402.412 354.692 402.369 355.164 402.212 355.603C402.054 356.043 401.787 356.435 401.436 356.742C400.149 358.07 398.778 359.315 397.332 360.468C395.892 361.734 394.431 362.982 392.949 364.212L392.193 364.815C394.182 363.762 396.189 362.736 398.169 361.701C399.357 361.08 400.734 360.414 402.075 361.008C402.506 361.185 402.864 361.502 403.092 361.908C403.13 361.974 403.164 362.044 403.191 362.115L403.245 362.268C403.264 362.321 403.279 362.375 403.29 362.43C403.389 362.92 403.339 363.427 403.146 363.888C402.597 365.4 400.833 366.165 399.474 366.795Z" fill="#534FD9"/>
<path opacity="0.1" d="M403.308 362.25C400.923 364.122 397.908 365.139 395.082 366.048C392.517 366.867 389.907 367.506 387.297 368.154C389.718 367.065 392.247 366.165 394.704 365.157C397.487 363.96 400.343 362.938 403.254 362.097C403.226 362.026 403.193 361.956 403.155 361.89C400.34 362.583 397.595 363.535 394.956 364.734C392.202 365.85 389.277 366.831 386.586 368.136C389.34 365.787 392.058 363.375 394.794 360.999C397.359 358.767 400.257 356.553 402.111 353.637C402.045 353.551 401.97 353.472 401.886 353.403C400.667 353.94 399.525 354.64 398.493 355.482C396.837 356.733 395.244 358.092 393.705 359.496C391.725 361.296 389.853 363.24 388.044 365.22C388.962 363.498 389.862 361.761 390.744 360.009C392.081 357.529 393.059 354.871 393.651 352.116C393.62 352.085 393.583 352.061 393.543 352.044C391.158 353.79 390.051 357.138 388.89 359.73C387.741 362.138 386.857 364.664 386.253 367.263L386.037 367.506C386.109 367.662 386.21 367.802 386.334 367.92C386.404 367.981 386.471 368.048 386.532 368.118C386.522 368.157 386.527 368.199 386.545 368.235C386.563 368.272 386.594 368.3 386.631 368.316C386.689 368.422 386.759 368.522 386.838 368.613C389.889 367.902 392.94 367.119 395.91 366.12C398.547 365.22 401.247 364.257 403.335 362.421C403.33 362.363 403.321 362.306 403.308 362.25ZM389.115 359.847C390.249 357.327 391.347 354.123 393.498 352.215C391.839 357.085 389.708 361.782 387.135 366.237L386.604 366.831C387.213 364.427 388.054 362.088 389.115 359.847ZM386.766 367.56L387.423 366.381C389.349 364.23 391.338 362.133 393.444 360.162C395.993 357.606 398.861 355.389 401.976 353.565C399.636 356.292 397.055 358.801 394.263 361.062C391.77 363.231 389.25 365.4 386.766 367.56Z" fill="black"/>
<path d="M389.871 370.035C387.531 371.516 385.068 372.793 382.509 373.851C381.375 374.283 379.926 372.564 380.763 371.151C381.141 370.521 384.615 365.751 385.263 364.914C385.992 363.942 388.044 366.057 388.593 366.615C389.268 367.344 390.6 369.315 389.871 370.035Z" fill="#263238"/>
<path d="M384.237 370.233C380.748 372.584 377.565 375.359 374.76 378.495C371.929 381.516 369.377 384.787 367.137 388.269C362.637 395.271 359.037 403.353 357.84 411.669C357.84 411.885 358.119 411.984 358.182 411.759C360.405 403.659 363.285 396.018 367.83 388.944C370.068 385.475 372.603 382.208 375.408 379.179C378.321 376.209 381.404 373.412 384.642 370.8C384.921 370.512 384.552 370.035 384.237 370.233Z" fill="#263238"/>
<path d="M387 330.354C386.541 331.254 381.888 335.979 380.061 337.464C378.936 338.364 376.65 336.969 377.073 335.061C377.262 334.161 379.404 327.456 379.773 326.304C380.232 324.918 383.373 326.547 384.192 326.979C385.335 327.528 387.603 329.265 387 330.354Z" fill="#263238"/>
<path d="M400.095 338.022C395.985 340.774 392.433 344.28 389.628 348.354C386.847 352.548 384.831 357.183 382.572 361.665C379.017 368.712 374.337 375.975 366.633 378.891C366.579 378.909 366.521 378.912 366.466 378.899C366.411 378.885 366.36 378.857 366.32 378.817C366.28 378.777 366.251 378.726 366.238 378.671C366.225 378.616 366.228 378.558 366.246 378.504C366.241 378.496 366.239 378.487 366.239 378.477C366.239 378.468 366.241 378.458 366.246 378.45C367.033 374.513 368.258 370.676 369.9 367.011C375.759 354.078 386.64 343.017 399.789 337.5C400.14 337.365 400.365 337.833 400.095 338.022Z" fill="#263238"/>
<path d="M380.7 332.694C377.618 336.679 375.039 341.028 373.023 345.645C370.946 350.149 369.277 354.829 368.037 359.631C365.562 369.27 364.5 379.8 366.3 389.7C366.31 389.749 366.337 389.792 366.375 389.824C366.414 389.855 366.462 389.872 366.511 389.872C366.561 389.872 366.609 389.855 366.648 389.824C366.686 389.792 366.713 389.749 366.723 389.7C366.219 379.701 366.606 369.9 369.117 360.153C370.35 355.367 372.004 350.699 374.058 346.203C376.245 341.73 378.694 337.391 381.393 333.207C381.6 332.757 380.988 332.352 380.7 332.694Z" fill="#263238"/>
<path d="M387 338.859C386.831 338.853 386.663 338.838 386.496 338.814H386.181C385.218 338.637 384.318 338.212 383.57 337.581C382.822 336.949 382.251 336.133 381.915 335.214H381.555C380.286 335.304 376.092 335.34 373.914 332.118C373.623 331.698 373.396 331.237 373.239 330.75C373.193 330.611 373.154 330.47 373.122 330.327C372.519 327.681 374.139 325.17 374.778 324.324L375.012 324.018L374.913 323.955C374.292 323.514 370.908 320.922 372.366 317.178C372.541 316.709 372.77 316.262 373.05 315.846C373.131 315.72 373.23 315.594 373.32 315.477C373.846 314.817 374.506 314.276 375.257 313.891C376.009 313.507 376.833 313.286 377.676 313.245H377.928C377.928 313.245 377.928 313.119 377.928 312.903C377.912 311.668 378.151 310.442 378.63 309.303C378.655 309.235 378.685 309.168 378.72 309.105C379.348 307.716 380.485 306.62 381.897 306.045C382.138 305.946 382.384 305.862 382.635 305.793L382.797 305.748C383.516 305.557 384.266 305.514 385.002 305.622H385.182C386.669 305.945 388.002 306.764 388.962 307.944L389.07 308.088H389.151C389.718 307.818 393.516 306.216 396.261 308.511C397.105 309.151 397.744 310.023 398.1 311.02C398.456 312.018 398.515 313.097 398.268 314.127C398.319 314.121 398.37 314.121 398.421 314.127C398.549 314.143 398.676 314.17 398.799 314.208C400.099 314.539 401.259 315.277 402.111 316.314L402.273 316.521C402.851 317.341 403.233 318.284 403.389 319.275C403.596 320.571 403.381 321.899 402.777 323.064C402.173 324.229 401.211 325.169 400.032 325.746L399.798 325.863H399.753C399.753 325.863 401.265 330.48 399.114 333.414C398.568 334.103 397.867 334.653 397.067 335.017C396.268 335.382 395.393 335.551 394.515 335.511H394.101C393.683 335.499 393.267 335.448 392.859 335.358C392.244 336.43 391.364 337.326 390.303 337.959C390.195 338.031 390.078 338.085 389.961 338.148C389.054 338.642 388.032 338.887 387 338.859Z" fill="#534FD9"/>
<path opacity="0.1" d="M387.225 325.8C387.225 324.452 387.144 323.106 386.982 321.768L386.874 321.903C386.415 324.676 385.589 327.376 384.417 329.931C383.823 331.353 383.166 332.748 382.473 334.125C382.284 334.476 382.113 334.836 381.924 335.196H381.564L381.978 334.422C382.761 332.91 383.49 331.38 384.147 329.805C385.174 327.217 385.993 324.55 386.595 321.831C386.584 321.81 386.578 321.787 386.578 321.764C386.578 321.74 386.584 321.717 386.595 321.696V321.642C386.595 321.597 386.595 321.552 386.595 321.507C384.463 323.386 382.165 325.067 379.728 326.529C378.27 327.483 376.812 328.428 375.336 329.346C374.625 329.787 373.905 330.246 373.167 330.732C373.121 330.593 373.082 330.452 373.05 330.309C373.653 329.949 374.265 329.607 374.85 329.247C376.272 328.347 377.685 327.447 379.098 326.547C381.684 324.891 384.183 323.104 386.586 321.192C384.147 322.038 381.627 322.65 379.125 323.262C377.703 323.604 376.281 323.937 374.868 324.288H374.742L374.976 323.982L374.877 323.919L378.9 323.01C381.474 322.389 384.048 321.732 386.613 321.066C384.813 320.76 383.013 320.436 381.168 320.274C379.323 320.112 377.235 320.202 375.255 320.13C375.245 320.126 375.237 320.119 375.231 320.11C375.226 320.101 375.223 320.091 375.223 320.081C375.223 320.07 375.226 320.06 375.231 320.051C375.237 320.042 375.245 320.035 375.255 320.031C377.227 319.791 379.22 319.776 381.195 319.986C382.906 320.099 384.606 320.343 386.28 320.715L385.974 320.472C383.801 319.354 381.558 318.377 379.26 317.547C377.937 317.088 376.56 316.647 375.237 316.341C374.508 316.161 373.77 316.017 373.041 315.873C373.122 315.747 373.221 315.621 373.311 315.504C375.427 315.931 377.504 316.533 379.521 317.304C381.445 317.974 383.316 318.786 385.119 319.734C383.787 318.564 382.509 317.322 381.204 316.134C380.097 315.117 378.864 314.208 377.667 313.263H377.919C377.919 313.263 377.919 313.137 377.919 312.921C379.017 313.821 380.115 314.721 381.168 315.666C382.851 317.214 384.498 318.798 386.19 320.328L386.586 320.553C383.467 317.174 380.79 313.412 378.621 309.357C378.646 309.289 378.676 309.223 378.711 309.159C379.718 311.026 380.839 312.83 382.068 314.559C383.499 316.548 385.128 318.375 386.676 320.274C385.776 317.862 385.11 315.333 384.417 312.867C383.769 310.536 383.139 308.196 382.617 305.838L382.779 305.793C383.391 308.07 383.967 310.347 384.579 312.624C385.299 315.153 386.163 317.664 386.874 320.202C386.728 315.305 386.086 310.435 384.957 305.667H385.137C386.315 309.63 386.968 313.73 387.081 317.862C387.234 316.305 387.486 314.739 387.747 313.227C388.042 311.461 388.433 309.713 388.917 307.989L389.025 308.133H389.106C388.683 309.933 388.269 311.796 387.954 313.659C387.558 315.972 387.414 318.294 387.108 320.616V320.679C387.734 318.693 388.683 316.823 389.916 315.144C391.074 313.297 392.489 311.624 394.119 310.176C394.129 310.171 394.14 310.17 394.151 310.172C394.162 310.174 394.173 310.179 394.18 310.187C394.188 310.195 394.194 310.205 394.196 310.216C394.197 310.227 394.196 310.238 394.191 310.248C392.645 311.762 391.297 313.464 390.177 315.315C389.114 316.876 388.229 318.552 387.54 320.31L387.756 320.139C390.456 317.025 394.416 315.432 398.367 314.208C398.495 314.224 398.622 314.251 398.745 314.289C396.836 314.897 394.972 315.637 393.165 316.503C391.862 317.153 390.652 317.973 389.565 318.942C391.061 318.137 392.655 317.532 394.308 317.142C396.839 316.454 399.47 316.213 402.084 316.431L402.246 316.638C399.724 316.497 397.196 316.743 394.749 317.367C392.546 317.848 390.448 318.723 388.557 319.95C388.278 320.229 388.008 320.526 387.738 320.85C391.896 319.815 396.522 319.383 400.689 320.445C400.721 320.457 400.748 320.48 400.765 320.51C400.781 320.539 400.787 320.574 400.78 320.608C400.774 320.641 400.756 320.671 400.729 320.693C400.703 320.714 400.669 320.725 400.635 320.724C398.427 320.427 396.203 320.274 393.975 320.265C391.826 320.318 389.686 320.574 387.585 321.03C387.531 321.093 387.486 321.165 387.432 321.219C390.05 321.792 392.621 322.556 395.127 323.505C396.8 324.197 398.429 324.99 400.005 325.881L399.771 325.998C398.106 325.152 396.414 324.351 394.677 323.667C392.462 322.833 390.199 322.132 387.9 321.57C389.718 322.972 391.384 324.562 392.868 326.313C394.627 328.286 396.157 330.45 397.431 332.766C397.485 332.856 397.359 332.919 397.305 332.838C395.862 330.584 394.259 328.436 392.508 326.412C391.112 324.899 389.637 323.46 388.089 322.101C389.656 324.251 390.984 326.566 392.049 329.004C393.057 331.13 393.877 333.34 394.497 335.61H394.083C393.437 333.358 392.634 331.154 391.68 329.013C390.419 326.439 388.991 323.949 387.405 321.561C387.405 321.561 387.405 321.561 387.36 321.561C388.429 324.441 389.184 327.429 389.61 330.471C390.04 332.984 390.272 335.527 390.303 338.076C390.195 338.148 390.078 338.202 389.961 338.265C389.935 335.615 389.734 332.969 389.358 330.345C388.803 327.383 388.063 324.458 387.144 321.588L387.099 321.642C387.313 322.83 387.413 324.035 387.396 325.242C387.468 327.042 387.468 328.857 387.396 330.687C387.282 333.405 386.982 336.111 386.496 338.787H386.181C386.613 336.23 386.913 333.653 387.081 331.065C387.225 329.301 387.261 327.546 387.225 325.8Z" fill="black"/>
<path opacity="0.1" d="M389.376 320.112C389.277 320.184 389.187 320.112 389.16 320.022C389.133 319.932 389.16 320.022 389.16 319.977C388.971 319.267 388.94 318.524 389.071 317.8C389.202 317.077 389.49 316.391 389.916 315.792C390.925 314.397 392.26 313.269 393.804 312.507C393.828 312.494 393.856 312.488 393.884 312.491C393.912 312.493 393.938 312.504 393.96 312.521C393.982 312.538 393.998 312.561 394.007 312.587C394.016 312.614 394.018 312.642 394.011 312.669C393.771 314.155 393.237 315.578 392.441 316.856C391.645 318.134 390.603 319.241 389.376 320.112Z" fill="black"/>
<path opacity="0.1" d="M378.396 316.179C378.379 316.162 378.368 316.14 378.362 316.116C378.357 316.093 378.358 316.068 378.366 316.045C378.373 316.022 378.386 316.002 378.404 315.986C378.422 315.97 378.444 315.959 378.468 315.954C378.468 315.954 378.468 315.909 378.513 315.909C379.214 315.693 379.954 315.632 380.681 315.73C381.408 315.828 382.106 316.082 382.725 316.476C384.166 317.42 385.35 318.706 386.172 320.22C386.186 320.243 386.193 320.27 386.192 320.297C386.191 320.324 386.183 320.351 386.168 320.373C386.153 320.396 386.132 320.414 386.107 320.425C386.082 320.436 386.055 320.44 386.028 320.436C384.538 320.266 383.096 319.802 381.786 319.072C380.476 318.341 379.324 317.358 378.396 316.179Z" fill="black"/>
<path opacity="0.1" d="M388.8 322.137C388.692 321.93 388.998 321.777 389.124 321.957C391.905 321.957 393.984 324.126 395.469 326.268C395.523 326.358 395.469 326.52 395.379 326.538C392.49 326.835 390.105 324.513 388.8 322.137Z" fill="black"/>
<path opacity="0.1" d="M384.3 312.219C384.345 311.994 384.678 312.066 384.66 312.282C386.847 314.01 387.09 317.025 386.892 319.626C386.892 319.734 386.766 319.842 386.658 319.77C384.147 318.177 383.751 314.865 384.3 312.219Z" fill="black"/>
<path d="M386.712 325.323C386.397 325.134 386.226 324.774 385.902 324.612C385.578 324.45 385.263 324.567 385.002 324.441C384.602 324.261 384.282 323.941 384.102 323.541C383.934 323.169 383.893 322.751 383.985 322.353C384.093 321.831 384.264 321.849 384.039 321.372C383.319 319.824 384.291 318.105 386.037 318.375C386.096 318.056 386.255 317.765 386.492 317.543C386.728 317.321 387.029 317.181 387.351 317.142C387.825 317.118 388.294 317.25 388.686 317.519C389.078 317.787 389.371 318.176 389.52 318.627C389.842 318.604 390.164 318.677 390.445 318.837C390.726 318.998 390.953 319.238 391.096 319.527C391.24 319.817 391.294 320.142 391.253 320.463C391.211 320.783 391.074 321.084 390.861 321.327C391.128 321.586 391.314 321.917 391.397 322.279C391.48 322.642 391.457 323.021 391.329 323.37C391.181 323.742 390.898 324.044 390.537 324.216C390.258 324.351 389.826 324.216 389.637 324.351C389.448 324.486 389.16 324.963 388.872 325.179C388.584 325.4 388.236 325.529 387.873 325.548C387.472 325.593 387.067 325.515 386.712 325.323Z" fill="#263238"/>
<path d="M349.092 313.371C349.362 314.487 353.313 321.084 354.969 323.271C355.986 324.612 358.947 323.649 358.992 321.381C358.992 320.364 358.425 312.192 358.299 310.779C358.155 309.096 354.186 310.086 353.133 310.338C351.774 310.653 348.75 311.985 349.092 313.371Z" fill="#263238"/>
<path d="M332.316 318.456C336.2 322.667 339.253 327.574 341.316 332.919C343.305 338.4 344.313 344.16 345.636 349.821C347.724 358.713 351.036 368.163 358.902 373.536C358.957 373.572 359.021 373.591 359.086 373.592C359.152 373.593 359.216 373.576 359.273 373.542C359.329 373.508 359.375 373.459 359.404 373.401C359.434 373.343 359.447 373.277 359.442 373.212C359.447 373.191 359.447 373.17 359.442 373.149C359.604 368.498 359.244 363.843 358.371 359.271C355.302 343.125 346.059 327.717 332.757 317.934C332.433 317.7 332.1 318.168 332.316 318.456Z" fill="#263238"/>
<path d="M355.581 317.7C357.969 323.02 359.687 328.616 360.693 334.359C361.81 339.993 362.412 345.716 362.493 351.459C362.673 362.988 360.99 375.12 356.337 385.74C356.22 386.019 355.788 385.911 355.878 385.605C359.154 374.49 361.386 363.339 361.206 351.693C361.106 345.972 360.504 340.271 359.406 334.656C358.299 328.932 356.436 323.568 354.681 318.033C354.6 317.556 355.356 317.259 355.581 317.7Z" fill="#263238"/>
<path d="M365.067 316.026C364.932 316.161 364.797 316.278 364.662 316.395L364.383 316.611C363.536 317.241 362.54 317.64 361.493 317.77C360.445 317.899 359.382 317.754 358.407 317.349L358.2 317.7C357.3 318.771 354.267 322.119 350.1 321.471C349.548 321.387 349.012 321.223 348.507 320.985C348.363 320.922 348.228 320.841 348.093 320.769C345.555 319.293 344.763 316.152 344.565 315.027C344.535 314.891 344.514 314.752 344.502 314.613H344.376C343.557 314.784 338.976 315.513 337.122 311.634C336.882 311.15 336.697 310.639 336.573 310.113C336.528 309.942 336.501 309.78 336.474 309.627C336.34 308.722 336.401 307.798 336.652 306.918C336.904 306.038 337.34 305.222 337.932 304.524C337.987 304.453 338.047 304.387 338.112 304.326C338.015 304.25 337.922 304.169 337.833 304.083C336.854 303.187 336.07 302.1 335.529 300.888C335.495 300.821 335.465 300.752 335.439 300.681C334.808 299.156 334.779 297.448 335.358 295.902C335.456 295.637 335.57 295.379 335.7 295.128C335.7 295.065 335.763 295.011 335.79 294.957C336.173 294.26 336.694 293.648 337.32 293.157L337.482 293.031C338.836 292.095 340.466 291.645 342.108 291.753H342.306V291.663C342.522 291.024 344.043 286.83 347.895 286.344C349.024 286.15 350.184 286.288 351.236 286.742C352.287 287.196 353.184 287.946 353.817 288.9L353.961 288.801C354.07 288.715 354.184 288.637 354.303 288.567C355.523 287.777 356.966 287.402 358.416 287.496H358.695C359.773 287.639 360.803 288.034 361.701 288.648C362.882 289.439 363.777 290.588 364.254 291.927C364.73 293.266 364.763 294.723 364.347 296.082L364.266 296.352C364.265 296.367 364.265 296.382 364.266 296.397C364.266 296.397 369.036 298.611 369.765 302.481C369.91 303.422 369.829 304.383 369.528 305.286C369.228 306.189 368.717 307.008 368.037 307.674L367.731 307.998C367.41 308.328 367.061 308.629 366.687 308.898C367.079 310.179 367.138 311.539 366.858 312.849C366.83 312.986 366.794 313.121 366.75 313.254C366.441 314.309 365.86 315.265 365.067 316.026Z" fill="#534FD9"/>
<path opacity="0.1" d="M354.87 306.225C353.803 305.23 352.676 304.301 351.495 303.444C351.499 303.504 351.499 303.564 351.495 303.624C353.356 306.035 354.887 308.683 356.049 311.499C356.733 313.011 357.354 314.568 357.93 316.134C358.074 316.539 358.227 316.944 358.38 317.358L358.2 317.7C358.101 317.394 358.002 317.097 357.894 316.8C357.264 315.063 356.598 313.353 355.842 311.67C354.549 308.949 353.045 306.334 351.342 303.849C351.316 303.839 351.293 303.823 351.274 303.803C351.256 303.783 351.242 303.759 351.234 303.732C351.238 303.714 351.238 303.696 351.234 303.678L351.144 303.543C351.065 306.618 350.703 309.679 350.064 312.687C349.74 314.55 349.407 316.404 349.047 318.249C348.867 319.149 348.723 320.049 348.534 320.949C348.39 320.886 348.255 320.805 348.12 320.733C348.282 319.986 348.462 319.248 348.606 318.528C348.966 316.728 349.299 314.928 349.623 313.182C350.218 309.906 350.648 306.602 350.91 303.282H350.856C349.722 305.829 348.354 308.277 346.986 310.707C346.203 312.093 345.42 313.461 344.655 314.847C344.655 314.892 344.61 314.928 344.592 314.973C344.562 314.837 344.541 314.698 344.529 314.559H344.403L346.581 310.689C347.997 308.187 349.383 305.67 350.739 303.138C349.155 304.344 347.58 305.523 346.095 306.864C344.61 308.205 343.134 309.933 341.595 311.445C341.55 311.445 341.469 311.445 341.505 311.373C342.774 309.638 344.232 308.051 345.852 306.639C347.21 305.372 348.66 304.208 350.19 303.156L349.776 303.21C347.283 304.108 344.851 305.166 342.495 306.378C341.154 307.08 339.84 307.845 338.571 308.673C337.887 309.114 337.239 309.573 336.582 310.068C336.537 309.897 336.51 309.735 336.483 309.582C338.393 308.222 340.41 307.018 342.513 305.982C344.466 304.958 346.49 304.077 348.57 303.345C346.653 303.543 344.736 303.633 342.819 303.786C341.199 303.921 339.57 304.218 337.941 304.47C337.996 304.399 338.056 304.333 338.121 304.272C338.024 304.196 337.931 304.115 337.842 304.029C339.363 303.813 340.884 303.606 342.423 303.48C344.889 303.282 347.355 303.156 349.821 302.94L350.289 302.796C345.309 302.763 340.353 302.104 335.538 300.834C335.504 300.767 335.474 300.698 335.448 300.627C337.676 301.201 339.936 301.646 342.216 301.959C344.844 302.283 347.499 302.346 350.136 302.526C347.571 301.446 345.078 300.114 342.603 298.836C340.281 297.639 337.968 296.406 335.709 295.074C335.709 295.011 335.772 294.957 335.799 294.903C338.049 296.109 340.299 297.333 342.558 298.503C345.096 299.808 347.715 300.978 350.253 302.283C346.268 298.785 341.937 295.7 337.329 293.076L337.491 292.95C341.5 294.946 345.23 297.457 348.588 300.42C347.463 299.151 346.41 297.792 345.402 296.469C344.222 294.93 343.126 293.328 342.117 291.672H342.315V291.582C343.458 293.274 344.601 294.957 345.843 296.577C347.382 298.602 349.119 300.429 350.73 302.382C349.623 300.422 348.844 298.294 348.426 296.082C347.814 293.8 347.536 291.442 347.598 289.08C347.602 289.07 347.609 289.062 347.618 289.056C347.627 289.051 347.637 289.048 347.647 289.048C347.658 289.048 347.668 289.051 347.677 289.056C347.686 289.062 347.693 289.07 347.697 289.08C347.93 293.465 348.967 297.769 350.757 301.779C350.757 301.671 350.757 301.581 350.757 301.482C350.307 297.027 351.954 292.734 353.898 288.693C354.007 288.607 354.121 288.529 354.24 288.459C353.312 290.418 352.521 292.439 351.873 294.507C351.415 296.026 351.164 297.601 351.126 299.187C351.584 297.399 352.27 295.678 353.169 294.066C354.503 291.56 356.256 289.302 358.353 287.388H358.632C356.658 289.281 354.989 291.466 353.682 293.868C352.43 295.965 351.573 298.275 351.153 300.681C351.153 301.104 351.207 301.536 351.252 301.977C353.493 297.918 356.571 293.931 360.486 291.42C360.63 291.33 360.792 291.546 360.666 291.663C358.804 293.196 357.04 294.843 355.383 296.595C353.841 298.34 352.467 300.226 351.279 302.229C351.279 302.319 351.279 302.409 351.279 302.49C353.665 300.841 356.168 299.367 358.767 298.08C360.549 297.267 362.38 296.564 364.248 295.974L364.167 296.244C362.263 296.923 360.394 297.698 358.569 298.566C356.282 299.718 354.067 301.007 351.936 302.427C354.389 302.019 356.878 301.874 359.361 301.995C362.224 302.061 365.07 302.444 367.848 303.138C367.947 303.138 367.902 303.318 367.803 303.3C364.953 302.776 362.068 302.457 359.172 302.346C356.945 302.337 354.719 302.445 352.503 302.67C355.361 303.021 358.172 303.675 360.891 304.623C363.318 305.397 365.673 306.381 367.929 307.566L367.623 307.89C365.357 306.74 363.014 305.748 360.612 304.92C357.643 304.018 354.619 303.312 351.558 302.805C351.551 302.809 351.543 302.811 351.535 302.811C351.528 302.811 351.52 302.809 351.513 302.805C354.584 304.085 357.508 305.693 360.234 307.602C362.54 309.119 364.725 310.813 366.768 312.669C366.74 312.806 366.704 312.941 366.66 313.074C364.542 311.13 362.299 309.326 359.946 307.674C357.189 305.933 354.328 304.364 351.378 302.976C351.374 303 351.374 303.024 351.378 303.048C352.478 303.756 353.509 304.567 354.456 305.469C355.941 306.765 357.381 308.106 358.749 309.519C360.838 311.614 362.784 313.848 364.572 316.206L364.293 316.422C362.607 314.184 360.804 312.036 358.893 309.987C357.651 308.808 356.283 307.485 354.87 306.225Z" fill="black"/>
<path opacity="0.1" d="M351.954 300.312C351.952 300.338 351.943 300.363 351.928 300.385C351.913 300.407 351.893 300.425 351.87 300.436C351.846 300.448 351.82 300.454 351.794 300.452C351.768 300.451 351.742 300.443 351.72 300.429C351.711 300.436 351.7 300.439 351.688 300.439C351.677 300.439 351.666 300.436 351.657 300.429C350.956 300.051 350.347 299.525 349.869 298.888C349.392 298.251 349.059 297.518 348.894 296.739C348.536 294.911 348.631 293.023 349.173 291.24C349.179 291.21 349.193 291.182 349.215 291.161C349.237 291.139 349.264 291.124 349.294 291.119C349.324 291.113 349.355 291.116 349.383 291.128C349.412 291.14 349.435 291.16 349.452 291.186C350.45 292.467 351.185 293.933 351.614 295.499C352.043 297.065 352.159 298.701 351.954 300.312Z" fill="black"/>
<path opacity="0.1" d="M351.414 304.992C351.418 304.967 351.428 304.943 351.444 304.923C351.46 304.903 351.481 304.888 351.505 304.879C351.529 304.87 351.554 304.867 351.579 304.871C351.605 304.875 351.628 304.886 351.648 304.902C351.659 304.896 351.671 304.892 351.684 304.892C351.697 304.892 351.709 304.896 351.72 304.902C352.378 305.349 352.931 305.934 353.339 306.616C353.748 307.299 354.003 308.062 354.087 308.853C354.258 310.709 353.97 312.579 353.25 314.298C353.236 314.325 353.216 314.347 353.19 314.362C353.165 314.378 353.136 314.386 353.106 314.386C353.076 314.386 353.047 314.378 353.022 314.362C352.996 314.347 352.976 314.325 352.962 314.298C351.234 311.524 350.677 308.177 351.414 304.992Z" fill="black"/>
<path opacity="0.1" d="M340.731 306.117C340.705 306.116 340.681 306.108 340.659 306.094C340.637 306.08 340.619 306.062 340.606 306.039C340.594 306.017 340.587 305.991 340.587 305.966C340.587 305.94 340.593 305.915 340.605 305.892C340.605 305.892 340.605 305.847 340.605 305.82C340.955 305.1 341.459 304.465 342.081 303.962C342.703 303.458 343.428 303.097 344.205 302.904C346.013 302.454 347.905 302.454 349.713 302.904C349.744 302.908 349.772 302.922 349.795 302.943C349.818 302.964 349.834 302.992 349.841 303.022C349.848 303.052 349.845 303.084 349.834 303.113C349.822 303.141 349.802 303.166 349.776 303.183C348.538 304.248 347.101 305.056 345.548 305.559C343.996 306.063 342.358 306.253 340.731 306.117Z" fill="black"/>
<path opacity="0.1" d="M353.16 302.238C352.917 302.175 353.025 301.824 353.259 301.86C355.293 299.637 358.569 299.601 361.359 300.06C361.476 300.06 361.584 300.213 361.503 300.321C359.586 302.814 355.986 302.994 353.16 302.238Z" fill="black"/>
<path opacity="0.1" d="M341.928 298.548C341.775 298.35 342.081 298.134 342.243 298.305C345.222 297.855 347.787 299.889 349.704 301.959C349.785 302.049 349.785 302.22 349.65 302.256C346.563 303.03 343.647 300.906 341.928 298.548Z" fill="black"/>
<path d="M354.123 306.279C353.736 306.396 353.322 306.279 352.953 306.396C352.584 306.513 352.44 306.864 352.143 306.99C351.713 307.177 351.229 307.199 350.784 307.053C350.36 306.918 349.995 306.641 349.749 306.27C349.416 305.802 349.56 305.676 349.011 305.505C347.211 304.929 346.608 302.886 348.111 301.707C347.901 301.427 347.787 301.086 347.787 300.735C347.787 300.385 347.901 300.044 348.111 299.763C348.44 299.368 348.889 299.093 349.39 298.979C349.891 298.865 350.416 298.919 350.883 299.133C351.11 298.869 351.41 298.677 351.744 298.58C352.079 298.482 352.435 298.484 352.768 298.585C353.102 298.686 353.399 298.882 353.623 299.149C353.848 299.415 353.99 299.741 354.033 300.087C354.436 300.068 354.835 300.164 355.185 300.365C355.534 300.566 355.818 300.863 356.004 301.221C356.185 301.616 356.217 302.064 356.094 302.481C355.986 302.796 355.59 303.066 355.509 303.318C355.428 303.57 355.644 304.146 355.599 304.524C355.558 304.916 355.405 305.288 355.158 305.595C354.886 305.918 354.527 306.156 354.123 306.279Z" fill="#263238"/>
<path d="M395.919 415.863H336.33L338.958 388.413L339.534 382.365H392.715L393.291 388.413L395.919 415.863Z" fill="#455A64"/>
<path d="M393.111 386.487L338.958 388.413L339.534 382.365H392.715L393.111 386.487Z" fill="#263238"/>
<path d="M396.117 377.217H336.132V384.507H396.117V377.217Z" fill="#455A64"/>
<path d="M46.512 415.863C160.866 415.314 289.134 415.305 403.488 415.863C289.134 416.421 160.866 416.412 46.512 415.863Z" fill="#263238"/>
<path d="M185.184 102.681C185.184 103.484 185.422 104.269 185.868 104.936C186.314 105.604 186.948 106.124 187.69 106.431C188.431 106.738 189.248 106.819 190.035 106.662C190.822 106.505 191.546 106.119 192.113 105.551C192.681 104.984 193.067 104.26 193.224 103.473C193.381 102.686 193.3 101.869 192.993 101.128C192.686 100.386 192.166 99.7521 191.498 99.3061C190.831 98.8601 190.046 98.6221 189.243 98.6221C188.167 98.6221 187.134 99.0497 186.373 99.8109C185.612 100.572 185.184 101.605 185.184 102.681Z" fill="white"/>
<path d="M185.184 102.681C185.184 103.698 185.588 104.673 186.307 105.392C187.026 106.111 188.001 106.515 189.018 106.515C190.035 106.515 191.01 106.111 191.729 105.392C192.448 104.673 192.852 103.698 192.852 102.681C192.852 101.664 192.448 100.689 191.729 99.97C191.01 99.251 190.035 98.8471 189.018 98.8471C188.001 98.8471 187.026 99.251 186.307 99.97C185.588 100.689 185.184 101.664 185.184 102.681ZM185.184 102.681C185.346 97.0291 193.563 96.9841 193.752 102.681C193.563 108.369 185.346 108.324 185.184 102.681Z" fill="#263238"/>
<path d="M180.198 96.327C183.424 96.327 186.039 93.7119 186.039 90.486C186.039 87.2601 183.424 84.645 180.198 84.645C176.972 84.645 174.357 87.2601 174.357 90.486C174.357 93.7119 176.972 96.327 180.198 96.327Z" fill="white"/>
<path d="M174.348 90.486C174.346 91.4056 174.569 92.3118 174.998 93.1251C175.427 93.9385 176.049 94.6342 176.809 95.1514C177.57 95.6686 178.445 95.9915 179.36 96.0918C180.274 96.1921 181.198 96.0668 182.053 95.7267C182.907 95.3867 183.665 94.8424 184.261 94.1414C184.856 93.4404 185.27 92.6042 185.467 91.706C185.664 90.8077 185.638 89.8748 185.391 88.989C185.144 88.1032 184.684 87.2915 184.05 86.625C180.702 82.944 174.276 85.464 174.348 90.486ZM174.348 90.486C174.346 89.4794 174.594 88.4882 175.071 87.6013C175.547 86.7145 176.236 85.9598 177.076 85.4052C177.916 84.8506 178.88 84.5134 179.883 84.424C180.886 84.3345 181.895 84.4955 182.82 84.8926C183.745 85.2897 184.556 85.9104 185.182 86.6989C185.808 87.4874 186.228 88.4191 186.404 89.4101C186.58 90.401 186.508 91.4203 186.193 92.3763C185.878 93.3323 185.33 94.1951 184.599 94.887C183.734 95.6942 182.654 96.2324 181.488 96.4357C180.323 96.6391 179.124 96.4989 178.037 96.0323C176.95 95.5657 176.023 94.7928 175.368 93.8079C174.712 92.823 174.358 91.6688 174.348 90.486Z" fill="#263238"/>
<path d="M131.94 102.51C157.717 102.51 178.614 86.9524 178.614 67.7611C178.614 48.5697 157.717 33.0121 131.94 33.0121C106.163 33.0121 85.2661 48.5697 85.2661 67.7611C85.2661 86.9524 106.163 102.51 131.94 102.51Z" fill="white"/>
<path d="M86.544 59.688C81.144 76.365 93.474 91.485 108.36 97.605C115.767 100.691 123.715 102.271 131.739 102.253C139.764 102.234 147.704 100.617 155.097 97.497C164.745 93.366 173.628 85.914 176.904 75.699C183.843 52.632 160.587 36.207 140.094 33.777C119.7 30.906 93.996 38.7 86.544 59.688ZM86.544 59.688C93.969 38.601 119.7 30.708 140.148 33.3C150.786 34.686 161.361 38.763 169.2 46.278C177.165 53.64 181.341 65.412 177.759 75.978C168.345 102.267 131.355 108.378 108.252 97.866C93.42 91.566 81.072 76.392 86.544 59.697V59.688Z" fill="#263238"/>
<path d="M132.201 69.642V73.071C132.21 73.4141 132.148 73.7554 132.02 74.0739C131.893 74.3925 131.701 74.6815 131.457 74.9234C131.214 75.1653 130.924 75.3548 130.604 75.4805C130.285 75.6061 129.943 75.6651 129.6 75.654C128.916 75.6516 128.26 75.3787 127.776 74.8948C127.292 74.4109 127.019 73.7553 127.017 73.071V67.581C127.017 67.527 127.071 67.527 127.071 67.473C127.071 67.419 127.017 67.419 127.017 67.365C127.05 66.6923 127.333 66.0563 127.811 65.5817C128.289 65.1072 128.927 64.8284 129.6 64.8C131.168 64.8 132.672 64.177 133.781 63.0681C134.89 61.9592 135.513 60.4552 135.513 58.887C135.513 57.3188 134.89 55.8148 133.781 54.7059C132.672 53.597 131.168 52.974 129.6 52.974C128.576 52.9711 127.568 53.2373 126.679 53.7459C125.79 54.2544 125.05 54.9876 124.533 55.872C124.361 56.1733 124.132 56.4375 123.857 56.649C123.582 56.8606 123.268 57.0153 122.933 57.1041C122.598 57.1929 122.248 57.2141 121.905 57.1663C121.562 57.1186 121.231 57.0029 120.933 56.826C120.641 56.6535 120.386 56.425 120.183 56.1536C119.979 55.8822 119.831 55.5733 119.748 55.2446C119.664 54.9159 119.646 54.5739 119.695 54.2383C119.744 53.9027 119.859 53.5801 120.033 53.289C120.956 51.699 122.259 50.3631 123.825 49.4013C125.392 48.4395 127.173 47.882 129.008 47.7787C130.844 47.6755 132.676 48.0299 134.34 48.81C136.005 49.59 137.45 50.7714 138.545 52.248C139.64 53.7245 140.351 55.4499 140.614 57.2693C140.877 59.0886 140.684 60.9448 140.053 62.6711C139.421 64.3975 138.37 65.9399 136.995 67.1598C135.62 68.3796 133.963 69.2388 132.174 69.66L132.201 69.642ZM132.201 81.198V82.152C132.21 82.4951 132.148 82.8364 132.02 83.1549C131.893 83.4735 131.701 83.7626 131.457 84.0044C131.214 84.2463 130.924 84.4358 130.604 84.5615C130.285 84.6871 129.943 84.7461 129.6 84.735C128.916 84.7326 128.26 84.4597 127.776 83.9758C127.292 83.4919 127.019 82.8363 127.017 82.152V81.198C127.029 80.5166 127.304 79.8663 127.786 79.3843C128.268 78.9024 128.919 78.6266 129.6 78.615C129.942 78.609 130.281 78.6715 130.598 78.7989C130.915 78.9264 131.204 79.1161 131.446 79.357C131.689 79.5978 131.88 79.8848 132.01 80.201C132.14 80.5172 132.205 80.8562 132.201 81.198Z" fill="#534FD9"/>
</svg>
